<mxfile host="Electron" modified="2024-05-17T21:12:21.191Z" agent="Mozilla/5.0 (Windows NT 10.0; Win64; x64) AppleWebKit/537.36 (KHTML, like Gecko) draw.io/24.4.0 Chrome/120.0.6099.109 Electron/28.1.0 Safari/537.36" etag="Y3UmGiZvfv99sGwhXo-D" version="24.4.0" type="device">
  <diagram name="Seite-1" id="7RsqC6U68hQ7IrIYSpEc">
    <mxGraphModel dx="7635" dy="2070" grid="1" gridSize="10" guides="1" tooltips="1" connect="1" arrows="1" fold="1" page="1" pageScale="1" pageWidth="827" pageHeight="1169" math="0" shadow="0">
      <root>
        <mxCell id="0" />
        <mxCell id="1" parent="0" />
        <mxCell id="Zpi-IdZab62BskHqZ9DS-1" value="" style="rounded=0;whiteSpace=wrap;html=1;" vertex="1" parent="1">
          <mxGeometry x="-3600" y="40" width="4350" height="1720" as="geometry" />
        </mxCell>
        <mxCell id="vLZ2Rf8hTbHAqbCH0FMH-1" value="Card" style="swimlane;fontStyle=1;align=center;verticalAlign=top;childLayout=stackLayout;horizontal=1;startSize=26;horizontalStack=0;resizeParent=1;resizeParentMax=0;resizeLast=0;collapsible=1;marginBottom=0;whiteSpace=wrap;html=1;" parent="1" vertex="1">
          <mxGeometry x="-220" y="650" width="160" height="190" as="geometry" />
        </mxCell>
        <mxCell id="vLZ2Rf8hTbHAqbCH0FMH-2" value="- id: Long&lt;div&gt;- name: String&lt;/div&gt;&lt;div&gt;- attackPoints: Integer&lt;/div&gt;&lt;div&gt;- defensePoints: Integer&lt;/div&gt;&lt;div&gt;- description: String&lt;/div&gt;&lt;div&gt;- image: byte[]&lt;/div&gt;&lt;div&gt;- rarity: Rarity&lt;/div&gt;&lt;div&gt;- decks: List&amp;lt;Deck&amp;gt;&lt;/div&gt;" style="text;strokeColor=none;fillColor=none;align=left;verticalAlign=top;spacingLeft=4;spacingRight=4;overflow=hidden;rotatable=0;points=[[0,0.5],[1,0.5]];portConstraint=eastwest;whiteSpace=wrap;html=1;" parent="vLZ2Rf8hTbHAqbCH0FMH-1" vertex="1">
          <mxGeometry y="26" width="160" height="124" as="geometry" />
        </mxCell>
        <mxCell id="vLZ2Rf8hTbHAqbCH0FMH-3" value="" style="line;strokeWidth=1;fillColor=none;align=left;verticalAlign=middle;spacingTop=-1;spacingLeft=3;spacingRight=3;rotatable=0;labelPosition=right;points=[];portConstraint=eastwest;strokeColor=inherit;" parent="vLZ2Rf8hTbHAqbCH0FMH-1" vertex="1">
          <mxGeometry y="150" width="160" height="40" as="geometry" />
        </mxCell>
        <mxCell id="vLZ2Rf8hTbHAqbCH0FMH-13" value="CardController" style="swimlane;fontStyle=1;align=center;verticalAlign=top;childLayout=stackLayout;horizontal=1;startSize=26;horizontalStack=0;resizeParent=1;resizeParentMax=0;resizeLast=0;collapsible=1;marginBottom=0;whiteSpace=wrap;html=1;" parent="1" vertex="1">
          <mxGeometry x="-21" y="264" width="390" height="150" as="geometry" />
        </mxCell>
        <mxCell id="vLZ2Rf8hTbHAqbCH0FMH-14" value="- cardService: CardService&lt;div&gt;- cardRepository: CardRepository&lt;/div&gt;" style="text;strokeColor=none;fillColor=none;align=left;verticalAlign=top;spacingLeft=4;spacingRight=4;overflow=hidden;rotatable=0;points=[[0,0.5],[1,0.5]];portConstraint=eastwest;whiteSpace=wrap;html=1;" parent="vLZ2Rf8hTbHAqbCH0FMH-13" vertex="1">
          <mxGeometry y="26" width="390" height="44" as="geometry" />
        </mxCell>
        <mxCell id="vLZ2Rf8hTbHAqbCH0FMH-15" value="" style="line;strokeWidth=1;fillColor=none;align=left;verticalAlign=middle;spacingTop=-1;spacingLeft=3;spacingRight=3;rotatable=0;labelPosition=right;points=[];portConstraint=eastwest;strokeColor=inherit;" parent="vLZ2Rf8hTbHAqbCH0FMH-13" vertex="1">
          <mxGeometry y="70" width="390" height="8" as="geometry" />
        </mxCell>
        <mxCell id="vLZ2Rf8hTbHAqbCH0FMH-16" value="+ uploadCardsFromCSV(MultipartFile): ResponseEntity&amp;lt;?&amp;gt;&lt;div&gt;+ deleteCard(List&amp;lt;String&amp;gt;): ResponseEntity&amp;lt;String&amp;gt;&lt;/div&gt;&lt;div&gt;+ findByName(String): ResponseEntity&amp;lt;Optional&amp;lt;CardResponse&amp;gt;&amp;gt;&lt;/div&gt;&lt;div&gt;+ findAll(): ResponseEntity&amp;lt;List&amp;lt;CardResponse&amp;gt;&amp;gt;&lt;/div&gt;" style="text;strokeColor=none;fillColor=none;align=left;verticalAlign=top;spacingLeft=4;spacingRight=4;overflow=hidden;rotatable=0;points=[[0,0.5],[1,0.5]];portConstraint=eastwest;whiteSpace=wrap;html=1;" parent="vLZ2Rf8hTbHAqbCH0FMH-13" vertex="1">
          <mxGeometry y="78" width="390" height="72" as="geometry" />
        </mxCell>
        <mxCell id="vLZ2Rf8hTbHAqbCH0FMH-17" value="&lt;div&gt;&lt;i&gt;&amp;lt;&amp;lt;Interface&amp;gt;&amp;gt;&lt;/i&gt;&lt;/div&gt;&lt;i&gt;CardRepository&lt;/i&gt;" style="swimlane;fontStyle=1;align=center;verticalAlign=top;childLayout=stackLayout;horizontal=1;startSize=40;horizontalStack=0;resizeParent=1;resizeParentMax=0;resizeLast=0;collapsible=1;marginBottom=0;whiteSpace=wrap;html=1;" parent="1" vertex="1">
          <mxGeometry x="472" y="280" width="230" height="124" as="geometry" />
        </mxCell>
        <mxCell id="vLZ2Rf8hTbHAqbCH0FMH-19" value="" style="line;strokeWidth=1;fillColor=none;align=left;verticalAlign=middle;spacingTop=-1;spacingLeft=3;spacingRight=3;rotatable=0;labelPosition=right;points=[];portConstraint=eastwest;strokeColor=inherit;" parent="vLZ2Rf8hTbHAqbCH0FMH-17" vertex="1">
          <mxGeometry y="40" width="230" height="44" as="geometry" />
        </mxCell>
        <mxCell id="vLZ2Rf8hTbHAqbCH0FMH-20" value="+ findByName(String): Optional&amp;lt;Card&amp;gt;&lt;div&gt;+ existsByName(String): boolean&lt;/div&gt;" style="text;strokeColor=none;fillColor=none;align=left;verticalAlign=top;spacingLeft=4;spacingRight=4;overflow=hidden;rotatable=0;points=[[0,0.5],[1,0.5]];portConstraint=eastwest;whiteSpace=wrap;html=1;" parent="vLZ2Rf8hTbHAqbCH0FMH-17" vertex="1">
          <mxGeometry y="84" width="230" height="40" as="geometry" />
        </mxCell>
        <mxCell id="vLZ2Rf8hTbHAqbCH0FMH-21" value="CardService" style="swimlane;fontStyle=1;align=center;verticalAlign=top;childLayout=stackLayout;horizontal=1;startSize=26;horizontalStack=0;resizeParent=1;resizeParentMax=0;resizeLast=0;collapsible=1;marginBottom=0;whiteSpace=wrap;html=1;" parent="1" vertex="1">
          <mxGeometry x="-440" y="270" width="270" height="200" as="geometry" />
        </mxCell>
        <mxCell id="vLZ2Rf8hTbHAqbCH0FMH-22" value="- cardRepository: CardRepository&lt;div&gt;- deckRepository: DeckRepository&lt;/div&gt;" style="text;strokeColor=none;fillColor=none;align=left;verticalAlign=top;spacingLeft=4;spacingRight=4;overflow=hidden;rotatable=0;points=[[0,0.5],[1,0.5]];portConstraint=eastwest;whiteSpace=wrap;html=1;" parent="vLZ2Rf8hTbHAqbCH0FMH-21" vertex="1">
          <mxGeometry y="26" width="270" height="34" as="geometry" />
        </mxCell>
        <mxCell id="vLZ2Rf8hTbHAqbCH0FMH-23" value="" style="line;strokeWidth=1;fillColor=none;align=left;verticalAlign=middle;spacingTop=-1;spacingLeft=3;spacingRight=3;rotatable=0;labelPosition=right;points=[];portConstraint=eastwest;strokeColor=inherit;" parent="vLZ2Rf8hTbHAqbCH0FMH-21" vertex="1">
          <mxGeometry y="60" width="270" height="28" as="geometry" />
        </mxCell>
        <mxCell id="vLZ2Rf8hTbHAqbCH0FMH-24" value="+ addCards(List&amp;lt;CardRequest&amp;gt;): String&lt;div&gt;+ saveCard(CardRequest): void&lt;/div&gt;&lt;div&gt;+deleteCard(String): void&lt;/div&gt;&lt;div&gt;+deleteMultipleCards(List&amp;lt;String&amp;gt;): String&lt;/div&gt;&lt;div&gt;+ parseCSV(MultipartFile): List&amp;lt;CardRequest&amp;gt;&lt;/div&gt;&lt;div&gt;- loadImageFromFile(String): byte[]&lt;/div&gt;&lt;div&gt;+ uploadAndSaveCards(MultipartFile)&lt;/div&gt;" style="text;strokeColor=none;fillColor=none;align=left;verticalAlign=top;spacingLeft=4;spacingRight=4;overflow=hidden;rotatable=0;points=[[0,0.5],[1,0.5]];portConstraint=eastwest;whiteSpace=wrap;html=1;" parent="vLZ2Rf8hTbHAqbCH0FMH-21" vertex="1">
          <mxGeometry y="88" width="270" height="112" as="geometry" />
        </mxCell>
        <mxCell id="vLZ2Rf8hTbHAqbCH0FMH-25" value="Rarity" style="swimlane;fontStyle=1;align=center;verticalAlign=top;childLayout=stackLayout;horizontal=1;startSize=26;horizontalStack=0;resizeParent=1;resizeParentMax=0;resizeLast=0;collapsible=1;marginBottom=0;whiteSpace=wrap;html=1;" parent="1" vertex="1">
          <mxGeometry x="30" y="484.5" width="160" height="100" as="geometry" />
        </mxCell>
        <mxCell id="vLZ2Rf8hTbHAqbCH0FMH-26" value="NORMAL&lt;div&gt;RARE&lt;/div&gt;&lt;div&gt;LEGENDARY&lt;/div&gt;" style="text;strokeColor=none;fillColor=none;align=left;verticalAlign=top;spacingLeft=4;spacingRight=4;overflow=hidden;rotatable=0;points=[[0,0.5],[1,0.5]];portConstraint=eastwest;whiteSpace=wrap;html=1;" parent="vLZ2Rf8hTbHAqbCH0FMH-25" vertex="1">
          <mxGeometry y="26" width="160" height="54" as="geometry" />
        </mxCell>
        <mxCell id="vLZ2Rf8hTbHAqbCH0FMH-27" value="" style="line;strokeWidth=1;fillColor=none;align=left;verticalAlign=middle;spacingTop=-1;spacingLeft=3;spacingRight=3;rotatable=0;labelPosition=right;points=[];portConstraint=eastwest;strokeColor=inherit;" parent="vLZ2Rf8hTbHAqbCH0FMH-25" vertex="1">
          <mxGeometry y="80" width="160" height="20" as="geometry" />
        </mxCell>
        <mxCell id="vLZ2Rf8hTbHAqbCH0FMH-30" value="CardRequest" style="swimlane;fontStyle=1;align=center;verticalAlign=top;childLayout=stackLayout;horizontal=1;startSize=26;horizontalStack=0;resizeParent=1;resizeParentMax=0;resizeLast=0;collapsible=1;marginBottom=0;whiteSpace=wrap;html=1;" parent="1" vertex="1">
          <mxGeometry x="254" y="650" width="160" height="140" as="geometry" />
        </mxCell>
        <mxCell id="vLZ2Rf8hTbHAqbCH0FMH-31" value="- name: String&lt;div&gt;- attackPoints: Integer&lt;/div&gt;&lt;div&gt;- defencePoints: Integer&lt;/div&gt;&lt;div&gt;- description: String&lt;/div&gt;&lt;div&gt;- image: byte[]&lt;/div&gt;&lt;div&gt;- rarity: Rarity&lt;/div&gt;" style="text;strokeColor=none;fillColor=none;align=left;verticalAlign=top;spacingLeft=4;spacingRight=4;overflow=hidden;rotatable=0;points=[[0,0.5],[1,0.5]];portConstraint=eastwest;whiteSpace=wrap;html=1;" parent="vLZ2Rf8hTbHAqbCH0FMH-30" vertex="1">
          <mxGeometry y="26" width="160" height="94" as="geometry" />
        </mxCell>
        <mxCell id="vLZ2Rf8hTbHAqbCH0FMH-32" value="" style="line;strokeWidth=1;fillColor=none;align=left;verticalAlign=middle;spacingTop=-1;spacingLeft=3;spacingRight=3;rotatable=0;labelPosition=right;points=[];portConstraint=eastwest;strokeColor=inherit;" parent="vLZ2Rf8hTbHAqbCH0FMH-30" vertex="1">
          <mxGeometry y="120" width="160" height="20" as="geometry" />
        </mxCell>
        <mxCell id="vLZ2Rf8hTbHAqbCH0FMH-33" value="CardResponse" style="swimlane;fontStyle=1;align=center;verticalAlign=top;childLayout=stackLayout;horizontal=1;startSize=26;horizontalStack=0;resizeParent=1;resizeParentMax=0;resizeLast=0;collapsible=1;marginBottom=0;whiteSpace=wrap;html=1;" parent="1" vertex="1">
          <mxGeometry x="30" y="650" width="160" height="140" as="geometry" />
        </mxCell>
        <mxCell id="vLZ2Rf8hTbHAqbCH0FMH-34" value="- name: String&lt;div&gt;- attackPoints: Integer&lt;/div&gt;&lt;div&gt;- defencePoints: Integer&lt;/div&gt;&lt;div&gt;- description: String&lt;/div&gt;&lt;div&gt;- image: String&lt;/div&gt;&lt;div&gt;- rarity: Rarity&lt;/div&gt;" style="text;strokeColor=none;fillColor=none;align=left;verticalAlign=top;spacingLeft=4;spacingRight=4;overflow=hidden;rotatable=0;points=[[0,0.5],[1,0.5]];portConstraint=eastwest;whiteSpace=wrap;html=1;" parent="vLZ2Rf8hTbHAqbCH0FMH-33" vertex="1">
          <mxGeometry y="26" width="160" height="94" as="geometry" />
        </mxCell>
        <mxCell id="vLZ2Rf8hTbHAqbCH0FMH-35" value="" style="line;strokeWidth=1;fillColor=none;align=left;verticalAlign=middle;spacingTop=-1;spacingLeft=3;spacingRight=3;rotatable=0;labelPosition=right;points=[];portConstraint=eastwest;strokeColor=inherit;" parent="vLZ2Rf8hTbHAqbCH0FMH-33" vertex="1">
          <mxGeometry y="120" width="160" height="20" as="geometry" />
        </mxCell>
        <mxCell id="vLZ2Rf8hTbHAqbCH0FMH-42" value="&lt;div&gt;&lt;i&gt;&amp;lt;&amp;lt;Interface&amp;gt;&amp;gt;&lt;/i&gt;&lt;/div&gt;&lt;i&gt;DeckRepository&lt;/i&gt;" style="swimlane;fontStyle=1;align=center;verticalAlign=top;childLayout=stackLayout;horizontal=1;startSize=40;horizontalStack=0;resizeParent=1;resizeParentMax=0;resizeLast=0;collapsible=1;marginBottom=0;whiteSpace=wrap;html=1;" parent="1" vertex="1">
          <mxGeometry x="-990" y="264" width="390" height="194" as="geometry" />
        </mxCell>
        <mxCell id="vLZ2Rf8hTbHAqbCH0FMH-44" value="" style="line;strokeWidth=1;fillColor=none;align=left;verticalAlign=middle;spacingTop=-1;spacingLeft=3;spacingRight=3;rotatable=0;labelPosition=right;points=[];portConstraint=eastwest;strokeColor=inherit;" parent="vLZ2Rf8hTbHAqbCH0FMH-42" vertex="1">
          <mxGeometry y="40" width="390" height="34" as="geometry" />
        </mxCell>
        <mxCell id="vLZ2Rf8hTbHAqbCH0FMH-45" value="+ deleteDeckCardsByDeckIdAndCardId(Long, List&amp;lt;Long&amp;gt;): void&lt;div&gt;+ findByUserId(Long): List&amp;lt;Deck&amp;gt;&lt;/div&gt;&lt;div&gt;+ countByUserId(Long): int&lt;/div&gt;&lt;div&gt;+ findByNameAndUser(String, UserAccount): Optional&amp;lt;Deck&amp;gt;&lt;/div&gt;&lt;div&gt;+ findAllDecksByUserIdAndName(Long, String): Optional&amp;lt;Deck&amp;gt;&lt;/div&gt;&lt;div&gt;+ findByNameAndUserId(String, Long): Optional&amp;lt;Deck&amp;gt;&lt;/div&gt;&lt;div&gt;+ findByCardsContaining(Card): List&amp;lt;Deck&amp;gt;&lt;/div&gt;" style="text;strokeColor=none;fillColor=none;align=left;verticalAlign=top;spacingLeft=4;spacingRight=4;overflow=hidden;rotatable=0;points=[[0,0.5],[1,0.5]];portConstraint=eastwest;whiteSpace=wrap;html=1;" parent="vLZ2Rf8hTbHAqbCH0FMH-42" vertex="1">
          <mxGeometry y="74" width="390" height="120" as="geometry" />
        </mxCell>
        <mxCell id="vLZ2Rf8hTbHAqbCH0FMH-47" value="DeckController" style="swimlane;fontStyle=1;align=center;verticalAlign=top;childLayout=stackLayout;horizontal=1;startSize=26;horizontalStack=0;resizeParent=1;resizeParentMax=0;resizeLast=0;collapsible=1;marginBottom=0;whiteSpace=wrap;html=1;" parent="1" vertex="1">
          <mxGeometry x="-1600" y="264" width="430" height="240" as="geometry" />
        </mxCell>
        <mxCell id="vLZ2Rf8hTbHAqbCH0FMH-48" value="- deckService: DeckService&lt;div&gt;- deckRepository: DeckRepository&lt;/div&gt;" style="text;strokeColor=none;fillColor=none;align=left;verticalAlign=top;spacingLeft=4;spacingRight=4;overflow=hidden;rotatable=0;points=[[0,0.5],[1,0.5]];portConstraint=eastwest;whiteSpace=wrap;html=1;" parent="vLZ2Rf8hTbHAqbCH0FMH-47" vertex="1">
          <mxGeometry y="26" width="430" height="44" as="geometry" />
        </mxCell>
        <mxCell id="vLZ2Rf8hTbHAqbCH0FMH-49" value="" style="line;strokeWidth=1;fillColor=none;align=left;verticalAlign=middle;spacingTop=-1;spacingLeft=3;spacingRight=3;rotatable=0;labelPosition=right;points=[];portConstraint=eastwest;strokeColor=inherit;" parent="vLZ2Rf8hTbHAqbCH0FMH-47" vertex="1">
          <mxGeometry y="70" width="430" height="8" as="geometry" />
        </mxCell>
        <mxCell id="vLZ2Rf8hTbHAqbCH0FMH-50" value="+ createDeck(DeckRequest): String&lt;div&gt;+ updateDeckName(Long, String, String): ResponseEntity&amp;lt;String&amp;gt;&lt;/div&gt;&lt;div&gt;+ removeAllCardInstancesFromDeck(DeckRequest): ResponseEntity&amp;lt;String&amp;gt;&lt;/div&gt;&lt;div&gt;+ removeCard(DeckRequest): ResponseEntity&amp;lt;String&amp;gt;&lt;/div&gt;&lt;div&gt;+ addCardsToDeck(DeckRequest): ResponseEntity&amp;lt;String&amp;gt;&lt;/div&gt;&lt;div&gt;+ replaceCardsInDeck(String, Long, ReplaceCardsRequest): String&lt;/div&gt;&lt;div&gt;+ getAllCardsFromDeck(Long, String): List&amp;lt;Card&amp;gt;&lt;/div&gt;&lt;div&gt;+ getUserDecks(Long): List&amp;lt;Deck&amp;gt;&lt;/div&gt;&lt;div&gt;+ getAll(): List&amp;lt;Deck&amp;gt;&lt;/div&gt;&lt;div&gt;+ deleteDeck(Map&amp;lt;Long, String&amp;gt;): String&lt;/div&gt;" style="text;strokeColor=none;fillColor=none;align=left;verticalAlign=top;spacingLeft=4;spacingRight=4;overflow=hidden;rotatable=0;points=[[0,0.5],[1,0.5]];portConstraint=eastwest;whiteSpace=wrap;html=1;" parent="vLZ2Rf8hTbHAqbCH0FMH-47" vertex="1">
          <mxGeometry y="78" width="430" height="162" as="geometry" />
        </mxCell>
        <mxCell id="vLZ2Rf8hTbHAqbCH0FMH-52" value="DeckService" style="swimlane;fontStyle=1;align=center;verticalAlign=top;childLayout=stackLayout;horizontal=1;startSize=26;horizontalStack=0;resizeParent=1;resizeParentMax=0;resizeLast=0;collapsible=1;marginBottom=0;whiteSpace=wrap;html=1;" parent="1" vertex="1">
          <mxGeometry x="-2190" y="264" width="430" height="240" as="geometry" />
        </mxCell>
        <mxCell id="vLZ2Rf8hTbHAqbCH0FMH-53" value="- cardRepository: CardRepository&lt;div&gt;- deckRepository: DeckRepository&lt;/div&gt;" style="text;strokeColor=none;fillColor=none;align=left;verticalAlign=top;spacingLeft=4;spacingRight=4;overflow=hidden;rotatable=0;points=[[0,0.5],[1,0.5]];portConstraint=eastwest;whiteSpace=wrap;html=1;" parent="vLZ2Rf8hTbHAqbCH0FMH-52" vertex="1">
          <mxGeometry y="26" width="430" height="44" as="geometry" />
        </mxCell>
        <mxCell id="vLZ2Rf8hTbHAqbCH0FMH-54" value="" style="line;strokeWidth=1;fillColor=none;align=left;verticalAlign=middle;spacingTop=-1;spacingLeft=3;spacingRight=3;rotatable=0;labelPosition=right;points=[];portConstraint=eastwest;strokeColor=inherit;" parent="vLZ2Rf8hTbHAqbCH0FMH-52" vertex="1">
          <mxGeometry y="70" width="430" height="8" as="geometry" />
        </mxCell>
        <mxCell id="vLZ2Rf8hTbHAqbCH0FMH-55" value="+ createDeck(DeckRequest): String&lt;div&gt;+ isDeckNameAvailableForUser(String, Long): boolean&lt;/div&gt;&lt;div&gt;+ updateDeckName(Long, String, String): String&lt;/div&gt;&lt;div&gt;+ removeAllCardsInstancesFromDeck(DeckRequest): String&lt;/div&gt;&lt;div&gt;+ removeFirstInstanceOfCardType(DeckRequest): String&lt;/div&gt;&lt;div&gt;+ addCardsToDeck(DeckRequest): String&lt;/div&gt;&lt;div&gt;+ replaceCardsInDeck(String, Long, List&amp;lt;String&amp;gt;, List&amp;lt;String&amp;gt;): String&lt;/div&gt;&lt;div&gt;+ getAllCardsFromDeck(Long, String): List&amp;lt;Card&amp;gt;&lt;/div&gt;&lt;div&gt;+ getUserDecksById(Long): List&amp;lt;Deck&amp;gt;&lt;/div&gt;&lt;div&gt;+ deleteDeckByUserIdAndDeckName(Long, String): String&lt;/div&gt;" style="text;strokeColor=none;fillColor=none;align=left;verticalAlign=top;spacingLeft=4;spacingRight=4;overflow=hidden;rotatable=0;points=[[0,0.5],[1,0.5]];portConstraint=eastwest;whiteSpace=wrap;html=1;" parent="vLZ2Rf8hTbHAqbCH0FMH-52" vertex="1">
          <mxGeometry y="78" width="430" height="162" as="geometry" />
        </mxCell>
        <mxCell id="vLZ2Rf8hTbHAqbCH0FMH-59" value="Deck" style="swimlane;fontStyle=1;align=center;verticalAlign=top;childLayout=stackLayout;horizontal=1;startSize=26;horizontalStack=0;resizeParent=1;resizeParentMax=0;resizeLast=0;collapsible=1;marginBottom=0;whiteSpace=wrap;html=1;" parent="1" vertex="1">
          <mxGeometry x="-1080" y="660" width="160" height="120" as="geometry" />
        </mxCell>
        <mxCell id="vLZ2Rf8hTbHAqbCH0FMH-60" value="- Id: Long&lt;div&gt;- name: String&lt;/div&gt;&lt;div&gt;- cards: List&amp;lt;Card&amp;gt;&lt;/div&gt;&lt;div&gt;- user: UserAccount&lt;/div&gt;" style="text;strokeColor=none;fillColor=none;align=left;verticalAlign=top;spacingLeft=4;spacingRight=4;overflow=hidden;rotatable=0;points=[[0,0.5],[1,0.5]];portConstraint=eastwest;whiteSpace=wrap;html=1;" parent="vLZ2Rf8hTbHAqbCH0FMH-59" vertex="1">
          <mxGeometry y="26" width="160" height="64" as="geometry" />
        </mxCell>
        <mxCell id="vLZ2Rf8hTbHAqbCH0FMH-61" value="" style="line;strokeWidth=1;fillColor=none;align=left;verticalAlign=middle;spacingTop=-1;spacingLeft=3;spacingRight=3;rotatable=0;labelPosition=right;points=[];portConstraint=eastwest;strokeColor=inherit;" parent="vLZ2Rf8hTbHAqbCH0FMH-59" vertex="1">
          <mxGeometry y="90" width="160" height="30" as="geometry" />
        </mxCell>
        <mxCell id="vLZ2Rf8hTbHAqbCH0FMH-63" value="DeckRequest" style="swimlane;fontStyle=1;align=center;verticalAlign=top;childLayout=stackLayout;horizontal=1;startSize=26;horizontalStack=0;resizeParent=1;resizeParentMax=0;resizeLast=0;collapsible=1;marginBottom=0;whiteSpace=wrap;html=1;" parent="1" vertex="1">
          <mxGeometry x="-1570" y="660" width="160" height="110" as="geometry" />
        </mxCell>
        <mxCell id="vLZ2Rf8hTbHAqbCH0FMH-64" value="- userID: Long&lt;div&gt;- name: String&lt;/div&gt;&lt;div&gt;- cardNames: List&amp;lt;String&amp;gt;&lt;/div&gt;" style="text;strokeColor=none;fillColor=none;align=left;verticalAlign=top;spacingLeft=4;spacingRight=4;overflow=hidden;rotatable=0;points=[[0,0.5],[1,0.5]];portConstraint=eastwest;whiteSpace=wrap;html=1;" parent="vLZ2Rf8hTbHAqbCH0FMH-63" vertex="1">
          <mxGeometry y="26" width="160" height="54" as="geometry" />
        </mxCell>
        <mxCell id="vLZ2Rf8hTbHAqbCH0FMH-65" value="" style="line;strokeWidth=1;fillColor=none;align=left;verticalAlign=middle;spacingTop=-1;spacingLeft=3;spacingRight=3;rotatable=0;labelPosition=right;points=[];portConstraint=eastwest;strokeColor=inherit;" parent="vLZ2Rf8hTbHAqbCH0FMH-63" vertex="1">
          <mxGeometry y="80" width="160" height="30" as="geometry" />
        </mxCell>
        <mxCell id="vLZ2Rf8hTbHAqbCH0FMH-67" value="ReplaceCardsRequest" style="swimlane;fontStyle=1;align=center;verticalAlign=top;childLayout=stackLayout;horizontal=1;startSize=26;horizontalStack=0;resizeParent=1;resizeParentMax=0;resizeLast=0;collapsible=1;marginBottom=0;whiteSpace=wrap;html=1;" parent="1" vertex="1">
          <mxGeometry x="-1335" y="660" width="190" height="110" as="geometry" />
        </mxCell>
        <mxCell id="vLZ2Rf8hTbHAqbCH0FMH-68" value="- cardsToRemove: List&amp;lt;String&amp;gt;&lt;div&gt;- cardsToAdd: List&amp;lt;String&amp;gt;&lt;/div&gt;" style="text;strokeColor=none;fillColor=none;align=left;verticalAlign=top;spacingLeft=4;spacingRight=4;overflow=hidden;rotatable=0;points=[[0,0.5],[1,0.5]];portConstraint=eastwest;whiteSpace=wrap;html=1;" parent="vLZ2Rf8hTbHAqbCH0FMH-67" vertex="1">
          <mxGeometry y="26" width="190" height="44" as="geometry" />
        </mxCell>
        <mxCell id="vLZ2Rf8hTbHAqbCH0FMH-69" value="" style="line;strokeWidth=1;fillColor=none;align=left;verticalAlign=middle;spacingTop=-1;spacingLeft=3;spacingRight=3;rotatable=0;labelPosition=right;points=[];portConstraint=eastwest;strokeColor=inherit;" parent="vLZ2Rf8hTbHAqbCH0FMH-67" vertex="1">
          <mxGeometry y="70" width="190" height="40" as="geometry" />
        </mxCell>
        <mxCell id="vLZ2Rf8hTbHAqbCH0FMH-78" value="" style="endArrow=none;html=1;edgeStyle=orthogonalEdgeStyle;rounded=0;exitX=0;exitY=0.5;exitDx=0;exitDy=0;entryX=1;entryY=0.5;entryDx=0;entryDy=0;" parent="1" source="vLZ2Rf8hTbHAqbCH0FMH-2" target="vLZ2Rf8hTbHAqbCH0FMH-60" edge="1">
          <mxGeometry relative="1" as="geometry">
            <mxPoint x="-610" y="780" as="sourcePoint" />
            <mxPoint x="-450" y="780" as="targetPoint" />
            <Array as="points">
              <mxPoint x="-220" y="718" />
            </Array>
          </mxGeometry>
        </mxCell>
        <mxCell id="vLZ2Rf8hTbHAqbCH0FMH-79" value="0..30" style="edgeLabel;resizable=0;html=1;align=left;verticalAlign=bottom;" parent="vLZ2Rf8hTbHAqbCH0FMH-78" connectable="0" vertex="1">
          <mxGeometry x="-1" relative="1" as="geometry">
            <mxPoint x="-30" y="-28" as="offset" />
          </mxGeometry>
        </mxCell>
        <mxCell id="vLZ2Rf8hTbHAqbCH0FMH-80" value="0..1" style="edgeLabel;resizable=0;html=1;align=right;verticalAlign=bottom;" parent="vLZ2Rf8hTbHAqbCH0FMH-78" connectable="0" vertex="1">
          <mxGeometry x="1" relative="1" as="geometry">
            <mxPoint x="30" y="-8" as="offset" />
          </mxGeometry>
        </mxCell>
        <mxCell id="vLZ2Rf8hTbHAqbCH0FMH-93" value="" style="endArrow=none;html=1;edgeStyle=orthogonalEdgeStyle;rounded=0;exitX=0;exitY=0.5;exitDx=0;exitDy=0;entryX=0.5;entryY=0;entryDx=0;entryDy=0;" parent="1" source="vLZ2Rf8hTbHAqbCH0FMH-26" target="vLZ2Rf8hTbHAqbCH0FMH-1" edge="1">
          <mxGeometry relative="1" as="geometry">
            <mxPoint x="-40" y="650" as="sourcePoint" />
            <mxPoint x="120" y="650" as="targetPoint" />
          </mxGeometry>
        </mxCell>
        <mxCell id="vLZ2Rf8hTbHAqbCH0FMH-94" value="1" style="edgeLabel;resizable=0;html=1;align=left;verticalAlign=bottom;" parent="vLZ2Rf8hTbHAqbCH0FMH-93" connectable="0" vertex="1">
          <mxGeometry x="-1" relative="1" as="geometry">
            <mxPoint x="-20" as="offset" />
          </mxGeometry>
        </mxCell>
        <mxCell id="vLZ2Rf8hTbHAqbCH0FMH-95" value="1" style="edgeLabel;resizable=0;html=1;align=right;verticalAlign=bottom;" parent="vLZ2Rf8hTbHAqbCH0FMH-93" connectable="0" vertex="1">
          <mxGeometry x="1" relative="1" as="geometry">
            <mxPoint x="-10" y="-10" as="offset" />
          </mxGeometry>
        </mxCell>
        <mxCell id="vLZ2Rf8hTbHAqbCH0FMH-96" value="" style="endArrow=none;html=1;edgeStyle=orthogonalEdgeStyle;rounded=0;exitX=0.5;exitY=1;exitDx=0;exitDy=0;entryX=0.5;entryY=0;entryDx=0;entryDy=0;" parent="1" source="vLZ2Rf8hTbHAqbCH0FMH-25" target="vLZ2Rf8hTbHAqbCH0FMH-33" edge="1">
          <mxGeometry relative="1" as="geometry">
            <mxPoint x="-40" y="650" as="sourcePoint" />
            <mxPoint x="120" y="650" as="targetPoint" />
          </mxGeometry>
        </mxCell>
        <mxCell id="vLZ2Rf8hTbHAqbCH0FMH-97" value="1" style="edgeLabel;resizable=0;html=1;align=left;verticalAlign=bottom;" parent="vLZ2Rf8hTbHAqbCH0FMH-96" connectable="0" vertex="1">
          <mxGeometry x="-1" relative="1" as="geometry">
            <mxPoint x="-20" y="16" as="offset" />
          </mxGeometry>
        </mxCell>
        <mxCell id="vLZ2Rf8hTbHAqbCH0FMH-98" value="1" style="edgeLabel;resizable=0;html=1;align=right;verticalAlign=bottom;" parent="vLZ2Rf8hTbHAqbCH0FMH-96" connectable="0" vertex="1">
          <mxGeometry x="1" relative="1" as="geometry">
            <mxPoint x="-10" as="offset" />
          </mxGeometry>
        </mxCell>
        <mxCell id="vLZ2Rf8hTbHAqbCH0FMH-99" value="" style="endArrow=none;html=1;edgeStyle=orthogonalEdgeStyle;rounded=0;exitX=1;exitY=0.5;exitDx=0;exitDy=0;entryX=0.5;entryY=0;entryDx=0;entryDy=0;" parent="1" source="vLZ2Rf8hTbHAqbCH0FMH-26" target="vLZ2Rf8hTbHAqbCH0FMH-30" edge="1">
          <mxGeometry relative="1" as="geometry">
            <mxPoint x="-40" y="650" as="sourcePoint" />
            <mxPoint x="120" y="650" as="targetPoint" />
          </mxGeometry>
        </mxCell>
        <mxCell id="vLZ2Rf8hTbHAqbCH0FMH-100" value="1" style="edgeLabel;resizable=0;html=1;align=left;verticalAlign=bottom;" parent="vLZ2Rf8hTbHAqbCH0FMH-99" connectable="0" vertex="1">
          <mxGeometry x="-1" relative="1" as="geometry" />
        </mxCell>
        <mxCell id="vLZ2Rf8hTbHAqbCH0FMH-101" value="1" style="edgeLabel;resizable=0;html=1;align=right;verticalAlign=bottom;" parent="vLZ2Rf8hTbHAqbCH0FMH-99" connectable="0" vertex="1">
          <mxGeometry x="1" relative="1" as="geometry" />
        </mxCell>
        <mxCell id="vLZ2Rf8hTbHAqbCH0FMH-102" value="" style="endArrow=none;html=1;edgeStyle=orthogonalEdgeStyle;rounded=0;exitX=1;exitY=0.5;exitDx=0;exitDy=0;entryX=0;entryY=0.25;entryDx=0;entryDy=0;" parent="1" source="vLZ2Rf8hTbHAqbCH0FMH-14" target="vLZ2Rf8hTbHAqbCH0FMH-17" edge="1">
          <mxGeometry relative="1" as="geometry">
            <mxPoint x="-40" y="250" as="sourcePoint" />
            <mxPoint x="120" y="250" as="targetPoint" />
            <Array as="points">
              <mxPoint x="369" y="311" />
            </Array>
          </mxGeometry>
        </mxCell>
        <mxCell id="vLZ2Rf8hTbHAqbCH0FMH-103" value="1" style="edgeLabel;resizable=0;html=1;align=left;verticalAlign=bottom;" parent="vLZ2Rf8hTbHAqbCH0FMH-102" connectable="0" vertex="1">
          <mxGeometry x="-1" relative="1" as="geometry">
            <mxPoint x="81" y="-2" as="offset" />
          </mxGeometry>
        </mxCell>
        <mxCell id="vLZ2Rf8hTbHAqbCH0FMH-104" value="1" style="edgeLabel;resizable=0;html=1;align=right;verticalAlign=bottom;" parent="vLZ2Rf8hTbHAqbCH0FMH-102" connectable="0" vertex="1">
          <mxGeometry x="1" relative="1" as="geometry">
            <mxPoint x="-82" as="offset" />
          </mxGeometry>
        </mxCell>
        <mxCell id="vLZ2Rf8hTbHAqbCH0FMH-105" value="" style="endArrow=none;html=1;edgeStyle=orthogonalEdgeStyle;rounded=0;exitX=0.5;exitY=0;exitDx=0;exitDy=0;entryX=0.5;entryY=0;entryDx=0;entryDy=0;" parent="1" source="vLZ2Rf8hTbHAqbCH0FMH-21" target="vLZ2Rf8hTbHAqbCH0FMH-17" edge="1">
          <mxGeometry relative="1" as="geometry">
            <mxPoint x="160" y="310" as="sourcePoint" />
            <mxPoint x="320" y="310" as="targetPoint" />
            <Array as="points">
              <mxPoint x="-305" y="220" />
              <mxPoint x="587" y="220" />
            </Array>
          </mxGeometry>
        </mxCell>
        <mxCell id="vLZ2Rf8hTbHAqbCH0FMH-106" value="1" style="edgeLabel;resizable=0;html=1;align=left;verticalAlign=bottom;" parent="vLZ2Rf8hTbHAqbCH0FMH-105" connectable="0" vertex="1">
          <mxGeometry x="-1" relative="1" as="geometry" />
        </mxCell>
        <mxCell id="vLZ2Rf8hTbHAqbCH0FMH-107" value="1" style="edgeLabel;resizable=0;html=1;align=right;verticalAlign=bottom;" parent="vLZ2Rf8hTbHAqbCH0FMH-105" connectable="0" vertex="1">
          <mxGeometry x="1" relative="1" as="geometry">
            <mxPoint x="-7" as="offset" />
          </mxGeometry>
        </mxCell>
        <mxCell id="vLZ2Rf8hTbHAqbCH0FMH-108" value="" style="endArrow=none;html=1;edgeStyle=orthogonalEdgeStyle;rounded=0;exitX=0.5;exitY=0;exitDx=0;exitDy=0;entryX=0.75;entryY=0;entryDx=0;entryDy=0;" parent="1" source="vLZ2Rf8hTbHAqbCH0FMH-52" target="vLZ2Rf8hTbHAqbCH0FMH-17" edge="1">
          <mxGeometry relative="1" as="geometry">
            <mxPoint x="-1110" y="280" as="sourcePoint" />
            <mxPoint x="-950" y="280" as="targetPoint" />
            <Array as="points">
              <mxPoint x="-1975" y="190" />
              <mxPoint x="645" y="190" />
            </Array>
          </mxGeometry>
        </mxCell>
        <mxCell id="vLZ2Rf8hTbHAqbCH0FMH-109" value="1" style="edgeLabel;resizable=0;html=1;align=left;verticalAlign=bottom;" parent="vLZ2Rf8hTbHAqbCH0FMH-108" connectable="0" vertex="1">
          <mxGeometry x="-1" relative="1" as="geometry" />
        </mxCell>
        <mxCell id="vLZ2Rf8hTbHAqbCH0FMH-110" value="1" style="edgeLabel;resizable=0;html=1;align=right;verticalAlign=bottom;" parent="vLZ2Rf8hTbHAqbCH0FMH-108" connectable="0" vertex="1">
          <mxGeometry x="1" relative="1" as="geometry" />
        </mxCell>
        <mxCell id="vLZ2Rf8hTbHAqbCH0FMH-111" value="" style="endArrow=none;html=1;edgeStyle=orthogonalEdgeStyle;rounded=0;exitX=1;exitY=0.5;exitDx=0;exitDy=0;entryX=0;entryY=0.5;entryDx=0;entryDy=0;" parent="1" source="vLZ2Rf8hTbHAqbCH0FMH-22" target="vLZ2Rf8hTbHAqbCH0FMH-14" edge="1">
          <mxGeometry relative="1" as="geometry">
            <mxPoint x="-110" y="330" as="sourcePoint" />
            <mxPoint x="50" y="330" as="targetPoint" />
          </mxGeometry>
        </mxCell>
        <mxCell id="vLZ2Rf8hTbHAqbCH0FMH-112" value="1" style="edgeLabel;resizable=0;html=1;align=left;verticalAlign=bottom;" parent="vLZ2Rf8hTbHAqbCH0FMH-111" connectable="0" vertex="1">
          <mxGeometry x="-1" relative="1" as="geometry" />
        </mxCell>
        <mxCell id="vLZ2Rf8hTbHAqbCH0FMH-113" value="1" style="edgeLabel;resizable=0;html=1;align=right;verticalAlign=bottom;" parent="vLZ2Rf8hTbHAqbCH0FMH-111" connectable="0" vertex="1">
          <mxGeometry x="1" relative="1" as="geometry" />
        </mxCell>
        <mxCell id="vLZ2Rf8hTbHAqbCH0FMH-114" value="" style="endArrow=none;html=1;edgeStyle=orthogonalEdgeStyle;rounded=0;exitX=1;exitY=0.25;exitDx=0;exitDy=0;entryX=0;entryY=0.5;entryDx=0;entryDy=0;" parent="1" source="vLZ2Rf8hTbHAqbCH0FMH-42" target="vLZ2Rf8hTbHAqbCH0FMH-22" edge="1">
          <mxGeometry relative="1" as="geometry">
            <mxPoint x="-580" y="331" as="sourcePoint" />
            <mxPoint x="-477" y="330" as="targetPoint" />
            <Array as="points">
              <mxPoint x="-580" y="313" />
              <mxPoint x="-440" y="313" />
            </Array>
          </mxGeometry>
        </mxCell>
        <mxCell id="vLZ2Rf8hTbHAqbCH0FMH-115" value="1" style="edgeLabel;resizable=0;html=1;align=left;verticalAlign=bottom;" parent="vLZ2Rf8hTbHAqbCH0FMH-114" connectable="0" vertex="1">
          <mxGeometry x="-1" relative="1" as="geometry">
            <mxPoint x="140" y="-2" as="offset" />
          </mxGeometry>
        </mxCell>
        <mxCell id="vLZ2Rf8hTbHAqbCH0FMH-116" value="1" style="edgeLabel;resizable=0;html=1;align=right;verticalAlign=bottom;" parent="vLZ2Rf8hTbHAqbCH0FMH-114" connectable="0" vertex="1">
          <mxGeometry x="1" relative="1" as="geometry">
            <mxPoint x="-150" y="-3" as="offset" />
          </mxGeometry>
        </mxCell>
        <mxCell id="vLZ2Rf8hTbHAqbCH0FMH-117" value="" style="endArrow=none;html=1;edgeStyle=orthogonalEdgeStyle;rounded=0;exitX=1;exitY=0.5;exitDx=0;exitDy=0;entryX=0;entryY=0.25;entryDx=0;entryDy=0;" parent="1" source="vLZ2Rf8hTbHAqbCH0FMH-48" target="vLZ2Rf8hTbHAqbCH0FMH-42" edge="1">
          <mxGeometry relative="1" as="geometry">
            <mxPoint x="-650" y="350" as="sourcePoint" />
            <mxPoint x="-490" y="350" as="targetPoint" />
          </mxGeometry>
        </mxCell>
        <mxCell id="vLZ2Rf8hTbHAqbCH0FMH-118" value="1" style="edgeLabel;resizable=0;html=1;align=left;verticalAlign=bottom;" parent="vLZ2Rf8hTbHAqbCH0FMH-117" connectable="0" vertex="1">
          <mxGeometry x="-1" relative="1" as="geometry" />
        </mxCell>
        <mxCell id="vLZ2Rf8hTbHAqbCH0FMH-119" value="1" style="edgeLabel;resizable=0;html=1;align=right;verticalAlign=bottom;" parent="vLZ2Rf8hTbHAqbCH0FMH-117" connectable="0" vertex="1">
          <mxGeometry x="1" relative="1" as="geometry" />
        </mxCell>
        <mxCell id="vLZ2Rf8hTbHAqbCH0FMH-120" value="" style="endArrow=none;html=1;edgeStyle=orthogonalEdgeStyle;rounded=0;exitX=1;exitY=0.5;exitDx=0;exitDy=0;" parent="1" source="vLZ2Rf8hTbHAqbCH0FMH-53" edge="1">
          <mxGeometry relative="1" as="geometry">
            <mxPoint x="-1660" y="280" as="sourcePoint" />
            <mxPoint x="-1600" y="312" as="targetPoint" />
          </mxGeometry>
        </mxCell>
        <mxCell id="vLZ2Rf8hTbHAqbCH0FMH-121" value="1" style="edgeLabel;resizable=0;html=1;align=left;verticalAlign=bottom;" parent="vLZ2Rf8hTbHAqbCH0FMH-120" connectable="0" vertex="1">
          <mxGeometry x="-1" relative="1" as="geometry" />
        </mxCell>
        <mxCell id="vLZ2Rf8hTbHAqbCH0FMH-122" value="1" style="edgeLabel;resizable=0;html=1;align=right;verticalAlign=bottom;" parent="vLZ2Rf8hTbHAqbCH0FMH-120" connectable="0" vertex="1">
          <mxGeometry x="1" relative="1" as="geometry" />
        </mxCell>
        <mxCell id="vLZ2Rf8hTbHAqbCH0FMH-123" value="UserAccount" style="swimlane;fontStyle=1;align=center;verticalAlign=top;childLayout=stackLayout;horizontal=1;startSize=26;horizontalStack=0;resizeParent=1;resizeParentMax=0;resizeLast=0;collapsible=1;marginBottom=0;whiteSpace=wrap;html=1;" parent="1" vertex="1">
          <mxGeometry x="-690" y="950" width="340" height="410" as="geometry" />
        </mxCell>
        <mxCell id="vLZ2Rf8hTbHAqbCH0FMH-124" value="- id: Long&lt;div&gt;- firstName: String&lt;/div&gt;&lt;div&gt;- lastName: String&lt;/div&gt;&lt;div&gt;- username: String&lt;/div&gt;&lt;div&gt;- email: String&lt;/div&gt;&lt;div&gt;- password: String&lt;/div&gt;&lt;div&gt;- dateOfBirth: Date&lt;/div&gt;&lt;div&gt;- leaderboardPoints: Integer&lt;/div&gt;&lt;div&gt;- sepCoins: Integer&lt;/div&gt;&lt;div&gt;- image: byte[]&lt;/div&gt;&lt;div&gt;- role: UserRole&lt;/div&gt;&lt;div&gt;- locked: Boolean&lt;/div&gt;&lt;div&gt;- enabled: Boolean&lt;/div&gt;&lt;div&gt;- decks: List&amp;lt;Deck&amp;gt;&lt;/div&gt;&lt;div&gt;- friends: List&amp;lt;UserAccount&amp;gt;&lt;/div&gt;&lt;div&gt;- friendRequests: List&amp;lt;UserAccount&amp;gt;&lt;/div&gt;&lt;div&gt;- privateFriendList: Boolean&lt;/div&gt;" style="text;strokeColor=none;fillColor=none;align=left;verticalAlign=top;spacingLeft=4;spacingRight=4;overflow=hidden;rotatable=0;points=[[0,0.5],[1,0.5]];portConstraint=eastwest;whiteSpace=wrap;html=1;" parent="vLZ2Rf8hTbHAqbCH0FMH-123" vertex="1">
          <mxGeometry y="26" width="340" height="274" as="geometry" />
        </mxCell>
        <mxCell id="vLZ2Rf8hTbHAqbCH0FMH-125" value="" style="line;strokeWidth=1;fillColor=none;align=left;verticalAlign=middle;spacingTop=-1;spacingLeft=3;spacingRight=3;rotatable=0;labelPosition=right;points=[];portConstraint=eastwest;strokeColor=inherit;" parent="vLZ2Rf8hTbHAqbCH0FMH-123" vertex="1">
          <mxGeometry y="300" width="340" height="8" as="geometry" />
        </mxCell>
        <mxCell id="vLZ2Rf8hTbHAqbCH0FMH-126" value="+ addFriend(UserAccount): void&lt;div&gt;+ removeFriend(UserAccount): void&lt;/div&gt;&lt;div&gt;+ addFriendRequest(UserAccount): void&lt;/div&gt;&lt;div&gt;+ getAuthorities(): Collection&amp;lt;? extends GrantedAuthority&amp;gt;&lt;/div&gt;&lt;div&gt;+ setFriendListPrivacy(Long, Boolean): void&lt;/div&gt;" style="text;strokeColor=none;fillColor=none;align=left;verticalAlign=top;spacingLeft=4;spacingRight=4;overflow=hidden;rotatable=0;points=[[0,0.5],[1,0.5]];portConstraint=eastwest;whiteSpace=wrap;html=1;" parent="vLZ2Rf8hTbHAqbCH0FMH-123" vertex="1">
          <mxGeometry y="308" width="340" height="102" as="geometry" />
        </mxCell>
        <mxCell id="vLZ2Rf8hTbHAqbCH0FMH-127" value="" style="endArrow=none;html=1;edgeStyle=orthogonalEdgeStyle;rounded=0;exitX=0.5;exitY=1;exitDx=0;exitDy=0;entryX=0.5;entryY=0;entryDx=0;entryDy=0;" parent="1" source="vLZ2Rf8hTbHAqbCH0FMH-59" target="vLZ2Rf8hTbHAqbCH0FMH-123" edge="1">
          <mxGeometry relative="1" as="geometry">
            <mxPoint x="-1280" y="1060" as="sourcePoint" />
            <mxPoint x="-1120" y="1060" as="targetPoint" />
          </mxGeometry>
        </mxCell>
        <mxCell id="vLZ2Rf8hTbHAqbCH0FMH-128" value="0..3" style="edgeLabel;resizable=0;html=1;align=left;verticalAlign=bottom;" parent="vLZ2Rf8hTbHAqbCH0FMH-127" connectable="0" vertex="1">
          <mxGeometry x="-1" relative="1" as="geometry">
            <mxPoint x="10" y="20" as="offset" />
          </mxGeometry>
        </mxCell>
        <mxCell id="vLZ2Rf8hTbHAqbCH0FMH-129" value="1" style="edgeLabel;resizable=0;html=1;align=right;verticalAlign=bottom;" parent="vLZ2Rf8hTbHAqbCH0FMH-127" connectable="0" vertex="1">
          <mxGeometry x="1" relative="1" as="geometry">
            <mxPoint x="-10" y="-10" as="offset" />
          </mxGeometry>
        </mxCell>
        <mxCell id="vLZ2Rf8hTbHAqbCH0FMH-130" value="&lt;div&gt;&lt;i&gt;&amp;lt;&amp;lt;Interface&amp;gt;&amp;gt;&lt;/i&gt;&lt;/div&gt;&lt;i&gt;UserAccountRepository&lt;/i&gt;" style="swimlane;fontStyle=1;align=center;verticalAlign=top;childLayout=stackLayout;horizontal=1;startSize=40;horizontalStack=0;resizeParent=1;resizeParentMax=0;resizeLast=0;collapsible=1;marginBottom=0;whiteSpace=wrap;html=1;" parent="1" vertex="1">
          <mxGeometry x="-1040" y="950" width="260" height="156" as="geometry" />
        </mxCell>
        <mxCell id="vLZ2Rf8hTbHAqbCH0FMH-132" value="" style="line;strokeWidth=1;fillColor=none;align=left;verticalAlign=middle;spacingTop=-1;spacingLeft=3;spacingRight=3;rotatable=0;labelPosition=right;points=[];portConstraint=eastwest;strokeColor=inherit;" parent="vLZ2Rf8hTbHAqbCH0FMH-130" vertex="1">
          <mxGeometry y="40" width="260" height="30" as="geometry" />
        </mxCell>
        <mxCell id="vLZ2Rf8hTbHAqbCH0FMH-133" value="+ findByEmail(String): Optional&amp;lt;UserAccount&amp;gt;&lt;div&gt;+ enableAppUser(String): int&lt;/div&gt;&lt;div&gt;+ countDecksByUserId(Long): int&lt;/div&gt;&lt;div&gt;+ existsByUsername(String): boolean&lt;/div&gt;" style="text;strokeColor=none;fillColor=none;align=left;verticalAlign=top;spacingLeft=4;spacingRight=4;overflow=hidden;rotatable=0;points=[[0,0.5],[1,0.5]];portConstraint=eastwest;whiteSpace=wrap;html=1;" parent="vLZ2Rf8hTbHAqbCH0FMH-130" vertex="1">
          <mxGeometry y="70" width="260" height="86" as="geometry" />
        </mxCell>
        <mxCell id="vLZ2Rf8hTbHAqbCH0FMH-134" value="UserAccountService" style="swimlane;fontStyle=1;align=center;verticalAlign=top;childLayout=stackLayout;horizontal=1;startSize=26;horizontalStack=0;resizeParent=1;resizeParentMax=0;resizeLast=0;collapsible=1;marginBottom=0;whiteSpace=wrap;html=1;" parent="1" vertex="1">
          <mxGeometry x="-1480" y="950" width="310" height="210" as="geometry" />
        </mxCell>
        <mxCell id="vLZ2Rf8hTbHAqbCH0FMH-135" value="- userAccountRepository&lt;div&gt;- USER_NOT_FOUND_MSG: String&lt;/div&gt;&lt;div&gt;- bcryptPasswordEncoder: BCryptPasswordEncoder&lt;/div&gt;&lt;div&gt;- confirmationTokenService: ConfirmationTokenService&lt;/div&gt;" style="text;strokeColor=none;fillColor=none;align=left;verticalAlign=top;spacingLeft=4;spacingRight=4;overflow=hidden;rotatable=0;points=[[0,0.5],[1,0.5]];portConstraint=eastwest;whiteSpace=wrap;html=1;" parent="vLZ2Rf8hTbHAqbCH0FMH-134" vertex="1">
          <mxGeometry y="26" width="310" height="74" as="geometry" />
        </mxCell>
        <mxCell id="vLZ2Rf8hTbHAqbCH0FMH-136" value="" style="line;strokeWidth=1;fillColor=none;align=left;verticalAlign=middle;spacingTop=-1;spacingLeft=3;spacingRight=3;rotatable=0;labelPosition=right;points=[];portConstraint=eastwest;strokeColor=inherit;" parent="vLZ2Rf8hTbHAqbCH0FMH-134" vertex="1">
          <mxGeometry y="100" width="310" height="8" as="geometry" />
        </mxCell>
        <mxCell id="vLZ2Rf8hTbHAqbCH0FMH-137" value="+ loadUserByUsername(String): UserDetails&lt;div&gt;+ isUsernameTaken(String): boolean&lt;/div&gt;&lt;div&gt;+ findAll(): List&amp;lt;UserAccount&amp;gt;&lt;/div&gt;&lt;div&gt;+ signUpUser(UserAccount): String&lt;/div&gt;&lt;div&gt;+ enableAppUser(String): void&lt;/div&gt;&lt;div&gt;+ deleteUser(String): void&lt;/div&gt;&lt;div&gt;&lt;br&gt;&lt;/div&gt;" style="text;strokeColor=none;fillColor=none;align=left;verticalAlign=top;spacingLeft=4;spacingRight=4;overflow=hidden;rotatable=0;points=[[0,0.5],[1,0.5]];portConstraint=eastwest;whiteSpace=wrap;html=1;" parent="vLZ2Rf8hTbHAqbCH0FMH-134" vertex="1">
          <mxGeometry y="108" width="310" height="102" as="geometry" />
        </mxCell>
        <mxCell id="vLZ2Rf8hTbHAqbCH0FMH-138" value="" style="endArrow=none;html=1;edgeStyle=orthogonalEdgeStyle;rounded=0;exitX=1;exitY=0.5;exitDx=0;exitDy=0;entryX=0;entryY=0.5;entryDx=0;entryDy=0;" parent="1" source="vLZ2Rf8hTbHAqbCH0FMH-135" target="vLZ2Rf8hTbHAqbCH0FMH-133" edge="1">
          <mxGeometry relative="1" as="geometry">
            <mxPoint x="-1160" y="1060" as="sourcePoint" />
            <mxPoint x="-1000" y="1060" as="targetPoint" />
            <Array as="points">
              <mxPoint x="-1040" y="1013" />
            </Array>
          </mxGeometry>
        </mxCell>
        <mxCell id="vLZ2Rf8hTbHAqbCH0FMH-139" value="1" style="edgeLabel;resizable=0;html=1;align=left;verticalAlign=bottom;" parent="vLZ2Rf8hTbHAqbCH0FMH-138" connectable="0" vertex="1">
          <mxGeometry x="-1" relative="1" as="geometry">
            <mxPoint x="5" y="-3" as="offset" />
          </mxGeometry>
        </mxCell>
        <mxCell id="vLZ2Rf8hTbHAqbCH0FMH-140" value="1" style="edgeLabel;resizable=0;html=1;align=right;verticalAlign=bottom;" parent="vLZ2Rf8hTbHAqbCH0FMH-138" connectable="0" vertex="1">
          <mxGeometry x="1" relative="1" as="geometry">
            <mxPoint x="-7" y="-53" as="offset" />
          </mxGeometry>
        </mxCell>
        <mxCell id="vLZ2Rf8hTbHAqbCH0FMH-141" value="UserAccountResponse" style="swimlane;fontStyle=1;align=center;verticalAlign=top;childLayout=stackLayout;horizontal=1;startSize=26;horizontalStack=0;resizeParent=1;resizeParentMax=0;resizeLast=0;collapsible=1;marginBottom=0;whiteSpace=wrap;html=1;" parent="1" vertex="1">
          <mxGeometry x="-1450" y="1268" width="180" height="240" as="geometry" />
        </mxCell>
        <mxCell id="vLZ2Rf8hTbHAqbCH0FMH-142" value="- firstName: String&lt;div&gt;- lastName: String&lt;/div&gt;&lt;div&gt;- username: String&lt;/div&gt;&lt;div&gt;- email: String&lt;/div&gt;&lt;div&gt;- dateOfBirth: Date&lt;/div&gt;&lt;div&gt;- leaderBoardPoints: Integer&lt;/div&gt;&lt;div&gt;- sepCoins: Integer&lt;/div&gt;&lt;div&gt;- image: String&lt;/div&gt;&lt;div&gt;- role: UserRole&lt;/div&gt;&lt;div&gt;- locked: Boolean:&lt;/div&gt;&lt;div&gt;- enabled: Boolean&lt;/div&gt;&lt;div&gt;- decks: List&amp;lt;Decks&amp;gt;&lt;/div&gt;" style="text;strokeColor=none;fillColor=none;align=left;verticalAlign=top;spacingLeft=4;spacingRight=4;overflow=hidden;rotatable=0;points=[[0,0.5],[1,0.5]];portConstraint=eastwest;whiteSpace=wrap;html=1;" parent="vLZ2Rf8hTbHAqbCH0FMH-141" vertex="1">
          <mxGeometry y="26" width="180" height="194" as="geometry" />
        </mxCell>
        <mxCell id="vLZ2Rf8hTbHAqbCH0FMH-143" value="" style="line;strokeWidth=1;fillColor=none;align=left;verticalAlign=middle;spacingTop=-1;spacingLeft=3;spacingRight=3;rotatable=0;labelPosition=right;points=[];portConstraint=eastwest;strokeColor=inherit;" parent="vLZ2Rf8hTbHAqbCH0FMH-141" vertex="1">
          <mxGeometry y="220" width="180" height="20" as="geometry" />
        </mxCell>
        <mxCell id="vLZ2Rf8hTbHAqbCH0FMH-145" value="UserRole" style="swimlane;fontStyle=1;align=center;verticalAlign=top;childLayout=stackLayout;horizontal=1;startSize=26;horizontalStack=0;resizeParent=1;resizeParentMax=0;resizeLast=0;collapsible=1;marginBottom=0;whiteSpace=wrap;html=1;" parent="1" vertex="1">
          <mxGeometry x="-1020" y="1268" width="160" height="110" as="geometry" />
        </mxCell>
        <mxCell id="vLZ2Rf8hTbHAqbCH0FMH-146" value="ADMIN&lt;div&gt;USER&lt;/div&gt;" style="text;strokeColor=none;fillColor=none;align=left;verticalAlign=top;spacingLeft=4;spacingRight=4;overflow=hidden;rotatable=0;points=[[0,0.5],[1,0.5]];portConstraint=eastwest;whiteSpace=wrap;html=1;" parent="vLZ2Rf8hTbHAqbCH0FMH-145" vertex="1">
          <mxGeometry y="26" width="160" height="44" as="geometry" />
        </mxCell>
        <mxCell id="vLZ2Rf8hTbHAqbCH0FMH-147" value="" style="line;strokeWidth=1;fillColor=none;align=left;verticalAlign=middle;spacingTop=-1;spacingLeft=3;spacingRight=3;rotatable=0;labelPosition=right;points=[];portConstraint=eastwest;strokeColor=inherit;" parent="vLZ2Rf8hTbHAqbCH0FMH-145" vertex="1">
          <mxGeometry y="70" width="160" height="40" as="geometry" />
        </mxCell>
        <mxCell id="vLZ2Rf8hTbHAqbCH0FMH-149" value="" style="endArrow=none;html=1;edgeStyle=orthogonalEdgeStyle;rounded=0;exitX=1;exitY=0.5;exitDx=0;exitDy=0;" parent="1" source="vLZ2Rf8hTbHAqbCH0FMH-142" target="vLZ2Rf8hTbHAqbCH0FMH-146" edge="1">
          <mxGeometry relative="1" as="geometry">
            <mxPoint x="-1020" y="1240" as="sourcePoint" />
            <mxPoint x="-860" y="1240" as="targetPoint" />
            <Array as="points">
              <mxPoint x="-1270" y="1330" />
            </Array>
          </mxGeometry>
        </mxCell>
        <mxCell id="vLZ2Rf8hTbHAqbCH0FMH-150" value="0..1" style="edgeLabel;resizable=0;html=1;align=left;verticalAlign=bottom;" parent="vLZ2Rf8hTbHAqbCH0FMH-149" connectable="0" vertex="1">
          <mxGeometry x="-1" relative="1" as="geometry">
            <mxPoint x="3" y="-63" as="offset" />
          </mxGeometry>
        </mxCell>
        <mxCell id="vLZ2Rf8hTbHAqbCH0FMH-151" value="1" style="edgeLabel;resizable=0;html=1;align=right;verticalAlign=bottom;" parent="vLZ2Rf8hTbHAqbCH0FMH-149" connectable="0" vertex="1">
          <mxGeometry x="1" relative="1" as="geometry">
            <mxPoint x="-10" as="offset" />
          </mxGeometry>
        </mxCell>
        <mxCell id="vLZ2Rf8hTbHAqbCH0FMH-152" value="" style="endArrow=none;html=1;edgeStyle=orthogonalEdgeStyle;rounded=0;exitX=1;exitY=0.5;exitDx=0;exitDy=0;entryX=0;entryY=0.5;entryDx=0;entryDy=0;" parent="1" source="vLZ2Rf8hTbHAqbCH0FMH-145" target="vLZ2Rf8hTbHAqbCH0FMH-124" edge="1">
          <mxGeometry relative="1" as="geometry">
            <mxPoint x="-1020" y="1240" as="sourcePoint" />
            <mxPoint x="-860" y="1240" as="targetPoint" />
          </mxGeometry>
        </mxCell>
        <mxCell id="vLZ2Rf8hTbHAqbCH0FMH-153" value="1" style="edgeLabel;resizable=0;html=1;align=left;verticalAlign=bottom;" parent="vLZ2Rf8hTbHAqbCH0FMH-152" connectable="0" vertex="1">
          <mxGeometry x="-1" relative="1" as="geometry" />
        </mxCell>
        <mxCell id="vLZ2Rf8hTbHAqbCH0FMH-154" value="0..1" style="edgeLabel;resizable=0;html=1;align=right;verticalAlign=bottom;" parent="vLZ2Rf8hTbHAqbCH0FMH-152" connectable="0" vertex="1">
          <mxGeometry x="1" relative="1" as="geometry">
            <mxPoint x="-10" as="offset" />
          </mxGeometry>
        </mxCell>
        <mxCell id="vLZ2Rf8hTbHAqbCH0FMH-155" value="ConfirmationTokenService" style="swimlane;fontStyle=1;align=center;verticalAlign=top;childLayout=stackLayout;horizontal=1;startSize=26;horizontalStack=0;resizeParent=1;resizeParentMax=0;resizeLast=0;collapsible=1;marginBottom=0;whiteSpace=wrap;html=1;" parent="1" vertex="1">
          <mxGeometry x="-1930" y="950" width="340" height="150" as="geometry" />
        </mxCell>
        <mxCell id="vLZ2Rf8hTbHAqbCH0FMH-156" value="- confirmationTokenRepository: ConfirmationTokenRepository" style="text;strokeColor=none;fillColor=none;align=left;verticalAlign=top;spacingLeft=4;spacingRight=4;overflow=hidden;rotatable=0;points=[[0,0.5],[1,0.5]];portConstraint=eastwest;whiteSpace=wrap;html=1;" parent="vLZ2Rf8hTbHAqbCH0FMH-155" vertex="1">
          <mxGeometry y="26" width="340" height="44" as="geometry" />
        </mxCell>
        <mxCell id="vLZ2Rf8hTbHAqbCH0FMH-157" value="" style="line;strokeWidth=1;fillColor=none;align=left;verticalAlign=middle;spacingTop=-1;spacingLeft=3;spacingRight=3;rotatable=0;labelPosition=right;points=[];portConstraint=eastwest;strokeColor=inherit;" parent="vLZ2Rf8hTbHAqbCH0FMH-155" vertex="1">
          <mxGeometry y="70" width="340" height="8" as="geometry" />
        </mxCell>
        <mxCell id="vLZ2Rf8hTbHAqbCH0FMH-158" value="+ generateToken(UserAccount, TokenPurpose): String&lt;div&gt;+ save(ConfirmationToken): void&lt;/div&gt;&lt;div&gt;+ getToken(String): Optional&amp;lt;ConfirmationToken&amp;gt;&lt;/div&gt;&lt;div&gt;+ setConfirmedAt(String): int&lt;/div&gt;" style="text;strokeColor=none;fillColor=none;align=left;verticalAlign=top;spacingLeft=4;spacingRight=4;overflow=hidden;rotatable=0;points=[[0,0.5],[1,0.5]];portConstraint=eastwest;whiteSpace=wrap;html=1;" parent="vLZ2Rf8hTbHAqbCH0FMH-155" vertex="1">
          <mxGeometry y="78" width="340" height="72" as="geometry" />
        </mxCell>
        <mxCell id="vLZ2Rf8hTbHAqbCH0FMH-159" value="" style="endArrow=none;html=1;edgeStyle=orthogonalEdgeStyle;rounded=0;exitX=1;exitY=0.5;exitDx=0;exitDy=0;entryX=0;entryY=0.5;entryDx=0;entryDy=0;" parent="1" source="vLZ2Rf8hTbHAqbCH0FMH-156" target="vLZ2Rf8hTbHAqbCH0FMH-135" edge="1">
          <mxGeometry relative="1" as="geometry">
            <mxPoint x="-1530" y="1100" as="sourcePoint" />
            <mxPoint x="-1370" y="1100" as="targetPoint" />
            <Array as="points">
              <mxPoint x="-1480" y="998" />
            </Array>
          </mxGeometry>
        </mxCell>
        <mxCell id="vLZ2Rf8hTbHAqbCH0FMH-160" value="1" style="edgeLabel;resizable=0;html=1;align=left;verticalAlign=bottom;" parent="vLZ2Rf8hTbHAqbCH0FMH-159" connectable="0" vertex="1">
          <mxGeometry x="-1" relative="1" as="geometry" />
        </mxCell>
        <mxCell id="vLZ2Rf8hTbHAqbCH0FMH-161" value="1" style="edgeLabel;resizable=0;html=1;align=right;verticalAlign=bottom;" parent="vLZ2Rf8hTbHAqbCH0FMH-159" connectable="0" vertex="1">
          <mxGeometry x="1" relative="1" as="geometry">
            <mxPoint x="-5" y="-15" as="offset" />
          </mxGeometry>
        </mxCell>
        <mxCell id="vLZ2Rf8hTbHAqbCH0FMH-162" value="&lt;i&gt;&amp;lt;&amp;lt;Interface&amp;gt;&amp;gt;&lt;/i&gt;&lt;div&gt;&lt;i&gt;ConfirmationTokenRepository&lt;/i&gt;&lt;/div&gt;" style="swimlane;fontStyle=1;align=center;verticalAlign=top;childLayout=stackLayout;horizontal=1;startSize=40;horizontalStack=0;resizeParent=1;resizeParentMax=0;resizeLast=0;collapsible=1;marginBottom=0;whiteSpace=wrap;html=1;" parent="1" vertex="1">
          <mxGeometry x="-2400" y="950" width="370" height="160" as="geometry" />
        </mxCell>
        <mxCell id="vLZ2Rf8hTbHAqbCH0FMH-164" value="" style="line;strokeWidth=1;fillColor=none;align=left;verticalAlign=middle;spacingTop=-1;spacingLeft=3;spacingRight=3;rotatable=0;labelPosition=right;points=[];portConstraint=eastwest;strokeColor=inherit;" parent="vLZ2Rf8hTbHAqbCH0FMH-162" vertex="1">
          <mxGeometry y="40" width="370" height="30" as="geometry" />
        </mxCell>
        <mxCell id="vLZ2Rf8hTbHAqbCH0FMH-165" value="+ findByToken(String): Optional&amp;gt;ConfirmationToken&amp;gt;&lt;div&gt;+ updateConfirmedAt(String, LocalDateTime): int&lt;/div&gt;&lt;div&gt;+ deleteTokensByEmailAndPurpose(String, TokenPurpose): void&lt;/div&gt;&lt;div&gt;+ existsByUserIdAndToken(Long, String): Boolean&lt;/div&gt;&lt;div&gt;+ deleteExpiredTokens(LocalDateTime): void&lt;/div&gt;" style="text;strokeColor=none;fillColor=none;align=left;verticalAlign=top;spacingLeft=4;spacingRight=4;overflow=hidden;rotatable=0;points=[[0,0.5],[1,0.5]];portConstraint=eastwest;whiteSpace=wrap;html=1;horizontal=1;" parent="vLZ2Rf8hTbHAqbCH0FMH-162" vertex="1">
          <mxGeometry y="70" width="370" height="90" as="geometry" />
        </mxCell>
        <mxCell id="vLZ2Rf8hTbHAqbCH0FMH-166" value="" style="endArrow=none;html=1;edgeStyle=orthogonalEdgeStyle;rounded=0;entryX=0;entryY=0.5;entryDx=0;entryDy=0;exitX=1;exitY=0.5;exitDx=0;exitDy=0;" parent="1" source="vLZ2Rf8hTbHAqbCH0FMH-165" target="vLZ2Rf8hTbHAqbCH0FMH-156" edge="1">
          <mxGeometry relative="1" as="geometry">
            <mxPoint x="-2130" y="1030" as="sourcePoint" />
            <mxPoint x="-1970" y="1030" as="targetPoint" />
            <Array as="points">
              <mxPoint x="-2030" y="998" />
            </Array>
          </mxGeometry>
        </mxCell>
        <mxCell id="vLZ2Rf8hTbHAqbCH0FMH-167" value="1" style="edgeLabel;resizable=0;html=1;align=left;verticalAlign=bottom;" parent="vLZ2Rf8hTbHAqbCH0FMH-166" connectable="0" vertex="1">
          <mxGeometry x="-1" relative="1" as="geometry">
            <mxPoint y="-55" as="offset" />
          </mxGeometry>
        </mxCell>
        <mxCell id="vLZ2Rf8hTbHAqbCH0FMH-168" value="1" style="edgeLabel;resizable=0;html=1;align=right;verticalAlign=bottom;" parent="vLZ2Rf8hTbHAqbCH0FMH-166" connectable="0" vertex="1">
          <mxGeometry x="1" relative="1" as="geometry">
            <mxPoint x="-4" y="-1" as="offset" />
          </mxGeometry>
        </mxCell>
        <mxCell id="vLZ2Rf8hTbHAqbCH0FMH-169" value="ConfirmationToken" style="swimlane;fontStyle=1;align=center;verticalAlign=top;childLayout=stackLayout;horizontal=1;startSize=26;horizontalStack=0;resizeParent=1;resizeParentMax=0;resizeLast=0;collapsible=1;marginBottom=0;whiteSpace=wrap;html=1;" parent="1" vertex="1">
          <mxGeometry x="-60" y="1180" width="180" height="180" as="geometry" />
        </mxCell>
        <mxCell id="vLZ2Rf8hTbHAqbCH0FMH-170" value="- id: Long&lt;div&gt;- token: String&lt;/div&gt;&lt;div&gt;- createdAt: LocalDateTime&lt;/div&gt;&lt;div&gt;- expiresAt: LocalDateTime&lt;/div&gt;&lt;div&gt;- confirmedAt: LocalDateTime&lt;/div&gt;&lt;div&gt;- appUser: UserAccount&lt;/div&gt;&lt;div&gt;- purpose: TokenPurpose&lt;/div&gt;" style="text;strokeColor=none;fillColor=none;align=left;verticalAlign=top;spacingLeft=4;spacingRight=4;overflow=hidden;rotatable=0;points=[[0,0.5],[1,0.5]];portConstraint=eastwest;whiteSpace=wrap;html=1;" parent="vLZ2Rf8hTbHAqbCH0FMH-169" vertex="1">
          <mxGeometry y="26" width="180" height="104" as="geometry" />
        </mxCell>
        <mxCell id="vLZ2Rf8hTbHAqbCH0FMH-171" value="" style="line;strokeWidth=1;fillColor=none;align=left;verticalAlign=middle;spacingTop=-1;spacingLeft=3;spacingRight=3;rotatable=0;labelPosition=right;points=[];portConstraint=eastwest;strokeColor=inherit;" parent="vLZ2Rf8hTbHAqbCH0FMH-169" vertex="1">
          <mxGeometry y="130" width="180" height="50" as="geometry" />
        </mxCell>
        <mxCell id="vLZ2Rf8hTbHAqbCH0FMH-173" value="" style="endArrow=none;html=1;edgeStyle=orthogonalEdgeStyle;rounded=0;entryX=1;entryY=0.5;entryDx=0;entryDy=0;" parent="1" target="vLZ2Rf8hTbHAqbCH0FMH-126" edge="1">
          <mxGeometry relative="1" as="geometry">
            <mxPoint x="-60" y="1240" as="sourcePoint" />
            <mxPoint x="-1020" y="1310" as="targetPoint" />
            <Array as="points">
              <mxPoint x="-350" y="1240" />
            </Array>
          </mxGeometry>
        </mxCell>
        <mxCell id="vLZ2Rf8hTbHAqbCH0FMH-174" value="1..n" style="edgeLabel;resizable=0;html=1;align=left;verticalAlign=bottom;" parent="vLZ2Rf8hTbHAqbCH0FMH-173" connectable="0" vertex="1">
          <mxGeometry x="-1" relative="1" as="geometry">
            <mxPoint x="-21" as="offset" />
          </mxGeometry>
        </mxCell>
        <mxCell id="vLZ2Rf8hTbHAqbCH0FMH-175" value="1" style="edgeLabel;resizable=0;html=1;align=right;verticalAlign=bottom;" parent="vLZ2Rf8hTbHAqbCH0FMH-173" connectable="0" vertex="1">
          <mxGeometry x="1" relative="1" as="geometry">
            <mxPoint x="10" y="-70" as="offset" />
          </mxGeometry>
        </mxCell>
        <mxCell id="vLZ2Rf8hTbHAqbCH0FMH-182" value="TokenPurpose" style="swimlane;fontStyle=1;align=center;verticalAlign=top;childLayout=stackLayout;horizontal=1;startSize=26;horizontalStack=0;resizeParent=1;resizeParentMax=0;resizeLast=0;collapsible=1;marginBottom=0;whiteSpace=wrap;html=1;" parent="1" vertex="1">
          <mxGeometry x="380" y="1180" width="160" height="88" as="geometry" />
        </mxCell>
        <mxCell id="vLZ2Rf8hTbHAqbCH0FMH-183" value="REGISTRATION&lt;div&gt;LOGIN&lt;/div&gt;" style="text;strokeColor=none;fillColor=none;align=left;verticalAlign=top;spacingLeft=4;spacingRight=4;overflow=hidden;rotatable=0;points=[[0,0.5],[1,0.5]];portConstraint=eastwest;whiteSpace=wrap;html=1;" parent="vLZ2Rf8hTbHAqbCH0FMH-182" vertex="1">
          <mxGeometry y="26" width="160" height="44" as="geometry" />
        </mxCell>
        <mxCell id="vLZ2Rf8hTbHAqbCH0FMH-184" value="" style="line;strokeWidth=1;fillColor=none;align=left;verticalAlign=middle;spacingTop=-1;spacingLeft=3;spacingRight=3;rotatable=0;labelPosition=right;points=[];portConstraint=eastwest;strokeColor=inherit;" parent="vLZ2Rf8hTbHAqbCH0FMH-182" vertex="1">
          <mxGeometry y="70" width="160" height="18" as="geometry" />
        </mxCell>
        <mxCell id="vLZ2Rf8hTbHAqbCH0FMH-186" value="" style="endArrow=none;html=1;edgeStyle=orthogonalEdgeStyle;rounded=0;exitX=0;exitY=0.5;exitDx=0;exitDy=0;entryX=1;entryY=0.5;entryDx=0;entryDy=0;" parent="1" source="vLZ2Rf8hTbHAqbCH0FMH-183" target="vLZ2Rf8hTbHAqbCH0FMH-170" edge="1">
          <mxGeometry relative="1" as="geometry">
            <mxPoint x="-1960" y="1230" as="sourcePoint" />
            <mxPoint x="-1800" y="1230" as="targetPoint" />
            <Array as="points">
              <mxPoint x="380" y="1250" />
              <mxPoint x="120" y="1250" />
            </Array>
          </mxGeometry>
        </mxCell>
        <mxCell id="vLZ2Rf8hTbHAqbCH0FMH-187" value="1" style="edgeLabel;resizable=0;html=1;align=left;verticalAlign=bottom;" parent="vLZ2Rf8hTbHAqbCH0FMH-186" connectable="0" vertex="1">
          <mxGeometry x="-1" relative="1" as="geometry">
            <mxPoint x="-19" y="17" as="offset" />
          </mxGeometry>
        </mxCell>
        <mxCell id="vLZ2Rf8hTbHAqbCH0FMH-188" value="1" style="edgeLabel;resizable=0;html=1;align=right;verticalAlign=bottom;" parent="vLZ2Rf8hTbHAqbCH0FMH-186" connectable="0" vertex="1">
          <mxGeometry x="1" relative="1" as="geometry">
            <mxPoint x="13" y="-13" as="offset" />
          </mxGeometry>
        </mxCell>
        <mxCell id="vLZ2Rf8hTbHAqbCH0FMH-189" value="RegistrationController" style="swimlane;fontStyle=1;align=center;verticalAlign=top;childLayout=stackLayout;horizontal=1;startSize=26;horizontalStack=0;resizeParent=1;resizeParentMax=0;resizeLast=0;collapsible=1;marginBottom=0;whiteSpace=wrap;html=1;" parent="1" vertex="1">
          <mxGeometry x="-1880" y="1268" width="340" height="180" as="geometry" />
        </mxCell>
        <mxCell id="vLZ2Rf8hTbHAqbCH0FMH-190" value="- registrationService: RegistrationService&lt;div&gt;- userAccountRepository: userAccountRepository&lt;/div&gt;" style="text;strokeColor=none;fillColor=none;align=left;verticalAlign=top;spacingLeft=4;spacingRight=4;overflow=hidden;rotatable=0;points=[[0,0.5],[1,0.5]];portConstraint=eastwest;whiteSpace=wrap;html=1;" parent="vLZ2Rf8hTbHAqbCH0FMH-189" vertex="1">
          <mxGeometry y="26" width="340" height="44" as="geometry" />
        </mxCell>
        <mxCell id="vLZ2Rf8hTbHAqbCH0FMH-191" value="" style="line;strokeWidth=1;fillColor=none;align=left;verticalAlign=middle;spacingTop=-1;spacingLeft=3;spacingRight=3;rotatable=0;labelPosition=right;points=[];portConstraint=eastwest;strokeColor=inherit;" parent="vLZ2Rf8hTbHAqbCH0FMH-189" vertex="1">
          <mxGeometry y="70" width="340" height="8" as="geometry" />
        </mxCell>
        <mxCell id="vLZ2Rf8hTbHAqbCH0FMH-192" value="+ register(MultipartFile, String, String, String, String, String, String, boolean): ResponseEntity&amp;lt;String&amp;gt;&lt;div&gt;+ findAll(): List&amp;lt;UserAccount&amp;gt;&lt;/div&gt;&lt;div&gt;+ getStatus(): String&lt;/div&gt;&lt;div&gt;+ confirm(String): String&lt;/div&gt;&lt;div&gt;+ setFriendListPrivacy(Long, Boolean): void&lt;/div&gt;" style="text;strokeColor=none;fillColor=none;align=left;verticalAlign=top;spacingLeft=4;spacingRight=4;overflow=hidden;rotatable=0;points=[[0,0.5],[1,0.5]];portConstraint=eastwest;whiteSpace=wrap;html=1;" parent="vLZ2Rf8hTbHAqbCH0FMH-189" vertex="1">
          <mxGeometry y="78" width="340" height="102" as="geometry" />
        </mxCell>
        <mxCell id="vLZ2Rf8hTbHAqbCH0FMH-193" value="" style="endArrow=none;html=1;edgeStyle=orthogonalEdgeStyle;rounded=0;exitX=0.5;exitY=0;exitDx=0;exitDy=0;entryX=0.497;entryY=0.995;entryDx=0;entryDy=0;entryPerimeter=0;" parent="1" source="vLZ2Rf8hTbHAqbCH0FMH-189" target="vLZ2Rf8hTbHAqbCH0FMH-133" edge="1">
          <mxGeometry relative="1" as="geometry">
            <mxPoint x="-1410" y="1220" as="sourcePoint" />
            <mxPoint x="-1250" y="1220" as="targetPoint" />
            <Array as="points">
              <mxPoint x="-1710" y="1220" />
              <mxPoint x="-911" y="1220" />
            </Array>
          </mxGeometry>
        </mxCell>
        <mxCell id="vLZ2Rf8hTbHAqbCH0FMH-194" value="1" style="edgeLabel;resizable=0;html=1;align=left;verticalAlign=bottom;" parent="vLZ2Rf8hTbHAqbCH0FMH-193" connectable="0" vertex="1">
          <mxGeometry x="-1" relative="1" as="geometry" />
        </mxCell>
        <mxCell id="vLZ2Rf8hTbHAqbCH0FMH-195" value="1" style="edgeLabel;resizable=0;html=1;align=right;verticalAlign=bottom;" parent="vLZ2Rf8hTbHAqbCH0FMH-193" connectable="0" vertex="1">
          <mxGeometry x="1" relative="1" as="geometry">
            <mxPoint x="-9" y="25" as="offset" />
          </mxGeometry>
        </mxCell>
        <mxCell id="vLZ2Rf8hTbHAqbCH0FMH-196" value="RegistationService" style="swimlane;fontStyle=1;align=center;verticalAlign=top;childLayout=stackLayout;horizontal=1;startSize=26;horizontalStack=0;resizeParent=1;resizeParentMax=0;resizeLast=0;collapsible=1;marginBottom=0;whiteSpace=wrap;html=1;" parent="1" vertex="1">
          <mxGeometry x="-2400" y="1268" width="460" height="140" as="geometry" />
        </mxCell>
        <mxCell id="vLZ2Rf8hTbHAqbCH0FMH-197" value="- userAccountService: UserAccountService&lt;div&gt;- confirmationTokenService: ConfirmationTokenService&lt;/div&gt;&lt;div&gt;- emailSender: EmailSender&lt;/div&gt;" style="text;strokeColor=none;fillColor=none;align=left;verticalAlign=top;spacingLeft=4;spacingRight=4;overflow=hidden;rotatable=0;points=[[0,0.5],[1,0.5]];portConstraint=eastwest;whiteSpace=wrap;html=1;" parent="vLZ2Rf8hTbHAqbCH0FMH-196" vertex="1">
          <mxGeometry y="26" width="460" height="54" as="geometry" />
        </mxCell>
        <mxCell id="vLZ2Rf8hTbHAqbCH0FMH-198" value="" style="line;strokeWidth=1;fillColor=none;align=left;verticalAlign=middle;spacingTop=-1;spacingLeft=3;spacingRight=3;rotatable=0;labelPosition=right;points=[];portConstraint=eastwest;strokeColor=inherit;" parent="vLZ2Rf8hTbHAqbCH0FMH-196" vertex="1">
          <mxGeometry y="80" width="460" height="8" as="geometry" />
        </mxCell>
        <mxCell id="vLZ2Rf8hTbHAqbCH0FMH-199" value="+ register(byte[], String, String, Date, String, String, String, UserRole): String&lt;div&gt;+ confirmToken(String): String&lt;/div&gt;&lt;div&gt;+ buildEmail(String, String): String&lt;/div&gt;" style="text;strokeColor=none;fillColor=none;align=left;verticalAlign=top;spacingLeft=4;spacingRight=4;overflow=hidden;rotatable=0;points=[[0,0.5],[1,0.5]];portConstraint=eastwest;whiteSpace=wrap;html=1;" parent="vLZ2Rf8hTbHAqbCH0FMH-196" vertex="1">
          <mxGeometry y="88" width="460" height="52" as="geometry" />
        </mxCell>
        <mxCell id="vLZ2Rf8hTbHAqbCH0FMH-200" value="" style="endArrow=none;html=1;edgeStyle=orthogonalEdgeStyle;rounded=0;exitX=0.75;exitY=0;exitDx=0;exitDy=0;entryX=0.495;entryY=1;entryDx=0;entryDy=0;entryPerimeter=0;" parent="1" source="vLZ2Rf8hTbHAqbCH0FMH-196" target="vLZ2Rf8hTbHAqbCH0FMH-137" edge="1">
          <mxGeometry relative="1" as="geometry">
            <mxPoint x="-1730" y="1320" as="sourcePoint" />
            <mxPoint x="-1570" y="1320" as="targetPoint" />
            <Array as="points">
              <mxPoint x="-2055" y="1200" />
              <mxPoint x="-1326" y="1200" />
            </Array>
          </mxGeometry>
        </mxCell>
        <mxCell id="vLZ2Rf8hTbHAqbCH0FMH-201" value="1" style="edgeLabel;resizable=0;html=1;align=left;verticalAlign=bottom;" parent="vLZ2Rf8hTbHAqbCH0FMH-200" connectable="0" vertex="1">
          <mxGeometry x="-1" relative="1" as="geometry">
            <mxPoint x="4" y="-8" as="offset" />
          </mxGeometry>
        </mxCell>
        <mxCell id="vLZ2Rf8hTbHAqbCH0FMH-202" value="1" style="edgeLabel;resizable=0;html=1;align=right;verticalAlign=bottom;" parent="vLZ2Rf8hTbHAqbCH0FMH-200" connectable="0" vertex="1">
          <mxGeometry x="1" relative="1" as="geometry">
            <mxPoint x="-7" y="20" as="offset" />
          </mxGeometry>
        </mxCell>
        <mxCell id="vLZ2Rf8hTbHAqbCH0FMH-203" value="" style="endArrow=none;html=1;edgeStyle=orthogonalEdgeStyle;rounded=0;exitX=0.5;exitY=0;exitDx=0;exitDy=0;entryX=0.499;entryY=0.998;entryDx=0;entryDy=0;entryPerimeter=0;" parent="1" source="vLZ2Rf8hTbHAqbCH0FMH-196" target="vLZ2Rf8hTbHAqbCH0FMH-158" edge="1">
          <mxGeometry relative="1" as="geometry">
            <mxPoint x="-1840" y="1210" as="sourcePoint" />
            <mxPoint x="-1680" y="1210" as="targetPoint" />
          </mxGeometry>
        </mxCell>
        <mxCell id="vLZ2Rf8hTbHAqbCH0FMH-204" value="1" style="edgeLabel;resizable=0;html=1;align=left;verticalAlign=bottom;" parent="vLZ2Rf8hTbHAqbCH0FMH-203" connectable="0" vertex="1">
          <mxGeometry x="-1" relative="1" as="geometry">
            <mxPoint x="4" y="-6" as="offset" />
          </mxGeometry>
        </mxCell>
        <mxCell id="vLZ2Rf8hTbHAqbCH0FMH-205" value="1" style="edgeLabel;resizable=0;html=1;align=right;verticalAlign=bottom;" parent="vLZ2Rf8hTbHAqbCH0FMH-203" connectable="0" vertex="1">
          <mxGeometry x="1" relative="1" as="geometry">
            <mxPoint x="-6" y="21" as="offset" />
          </mxGeometry>
        </mxCell>
        <mxCell id="vLZ2Rf8hTbHAqbCH0FMH-206" value="RegistrationRequest" style="swimlane;fontStyle=1;align=center;verticalAlign=top;childLayout=stackLayout;horizontal=1;startSize=26;horizontalStack=0;resizeParent=1;resizeParentMax=0;resizeLast=0;collapsible=1;marginBottom=0;whiteSpace=wrap;html=1;" parent="1" vertex="1">
          <mxGeometry x="-2630" y="1268" width="160" height="180" as="geometry" />
        </mxCell>
        <mxCell id="vLZ2Rf8hTbHAqbCH0FMH-207" value="- username: String&lt;div&gt;- firstName: String&lt;/div&gt;&lt;div&gt;- lastName: String&lt;/div&gt;&lt;div&gt;- email: String&lt;/div&gt;&lt;div&gt;- password: String&lt;/div&gt;&lt;div&gt;- dateOfBirth: Date&lt;/div&gt;&lt;div&gt;- image: byte[]&lt;/div&gt;&lt;div&gt;- role userRole&lt;/div&gt;" style="text;strokeColor=none;fillColor=none;align=left;verticalAlign=top;spacingLeft=4;spacingRight=4;overflow=hidden;rotatable=0;points=[[0,0.5],[1,0.5]];portConstraint=eastwest;whiteSpace=wrap;html=1;" parent="vLZ2Rf8hTbHAqbCH0FMH-206" vertex="1">
          <mxGeometry y="26" width="160" height="124" as="geometry" />
        </mxCell>
        <mxCell id="vLZ2Rf8hTbHAqbCH0FMH-208" value="" style="line;strokeWidth=1;fillColor=none;align=left;verticalAlign=middle;spacingTop=-1;spacingLeft=3;spacingRight=3;rotatable=0;labelPosition=right;points=[];portConstraint=eastwest;strokeColor=inherit;" parent="vLZ2Rf8hTbHAqbCH0FMH-206" vertex="1">
          <mxGeometry y="150" width="160" height="30" as="geometry" />
        </mxCell>
        <mxCell id="vLZ2Rf8hTbHAqbCH0FMH-210" value="" style="endArrow=none;html=1;edgeStyle=orthogonalEdgeStyle;rounded=0;exitX=0.5;exitY=1;exitDx=0;exitDy=0;entryX=0.5;entryY=1;entryDx=0;entryDy=0;" parent="1" source="vLZ2Rf8hTbHAqbCH0FMH-206" target="vLZ2Rf8hTbHAqbCH0FMH-145" edge="1">
          <mxGeometry relative="1" as="geometry">
            <mxPoint x="-1880" y="1520" as="sourcePoint" />
            <mxPoint x="-1720" y="1520" as="targetPoint" />
            <Array as="points">
              <mxPoint x="-2550" y="1530" />
              <mxPoint x="-940" y="1530" />
            </Array>
          </mxGeometry>
        </mxCell>
        <mxCell id="vLZ2Rf8hTbHAqbCH0FMH-211" value="0..1" style="edgeLabel;resizable=0;html=1;align=left;verticalAlign=bottom;" parent="vLZ2Rf8hTbHAqbCH0FMH-210" connectable="0" vertex="1">
          <mxGeometry x="-1" relative="1" as="geometry">
            <mxPoint x="10" y="22" as="offset" />
          </mxGeometry>
        </mxCell>
        <mxCell id="vLZ2Rf8hTbHAqbCH0FMH-213" value="1" style="edgeLabel;resizable=0;html=1;align=right;verticalAlign=bottom;" parent="vLZ2Rf8hTbHAqbCH0FMH-210" connectable="0" vertex="1">
          <mxGeometry x="1" relative="1" as="geometry">
            <mxPoint x="-10" y="22" as="offset" />
          </mxGeometry>
        </mxCell>
        <mxCell id="vLZ2Rf8hTbHAqbCH0FMH-214" value="LoginController" style="swimlane;fontStyle=1;align=center;verticalAlign=top;childLayout=stackLayout;horizontal=1;startSize=26;horizontalStack=0;resizeParent=1;resizeParentMax=0;resizeLast=0;collapsible=1;marginBottom=0;whiteSpace=wrap;html=1;" parent="1" vertex="1">
          <mxGeometry x="-2610" y="690" width="370" height="170" as="geometry" />
        </mxCell>
        <mxCell id="vLZ2Rf8hTbHAqbCH0FMH-215" value="- authentificationManager: AuthentificationManager&lt;div&gt;- confirmationTokenService: ConfirmationTokenService&lt;/div&gt;&lt;div&gt;- emailSender: EmailSender&lt;/div&gt;&lt;div&gt;- confirmationTokenRepository: ConfirmationTokenRepository&lt;/div&gt;&lt;div&gt;- SUPER_CODE: String&lt;/div&gt;" style="text;strokeColor=none;fillColor=none;align=left;verticalAlign=top;spacingLeft=4;spacingRight=4;overflow=hidden;rotatable=0;points=[[0,0.5],[1,0.5]];portConstraint=eastwest;whiteSpace=wrap;html=1;" parent="vLZ2Rf8hTbHAqbCH0FMH-214" vertex="1">
          <mxGeometry y="26" width="370" height="84" as="geometry" />
        </mxCell>
        <mxCell id="vLZ2Rf8hTbHAqbCH0FMH-216" value="" style="line;strokeWidth=1;fillColor=none;align=left;verticalAlign=middle;spacingTop=-1;spacingLeft=3;spacingRight=3;rotatable=0;labelPosition=right;points=[];portConstraint=eastwest;strokeColor=inherit;" parent="vLZ2Rf8hTbHAqbCH0FMH-214" vertex="1">
          <mxGeometry y="110" width="370" height="8" as="geometry" />
        </mxCell>
        <mxCell id="vLZ2Rf8hTbHAqbCH0FMH-217" value="+ login(LoginRequest): ResponseEntity&amp;lt;Map&amp;lt;String, String&amp;gt;&amp;gt;&lt;div&gt;+ verifyLoginToken(LoginTokenRequest): String&lt;/div&gt;&lt;div&gt;+ buildLoginEmail(String, String): String&lt;/div&gt;" style="text;strokeColor=none;fillColor=none;align=left;verticalAlign=top;spacingLeft=4;spacingRight=4;overflow=hidden;rotatable=0;points=[[0,0.5],[1,0.5]];portConstraint=eastwest;whiteSpace=wrap;html=1;" parent="vLZ2Rf8hTbHAqbCH0FMH-214" vertex="1">
          <mxGeometry y="118" width="370" height="52" as="geometry" />
        </mxCell>
        <mxCell id="vLZ2Rf8hTbHAqbCH0FMH-218" value="" style="endArrow=none;html=1;edgeStyle=orthogonalEdgeStyle;rounded=0;entryX=0.001;entryY=-0.034;entryDx=0;entryDy=0;entryPerimeter=0;" parent="1" target="vLZ2Rf8hTbHAqbCH0FMH-165" edge="1">
          <mxGeometry relative="1" as="geometry">
            <mxPoint x="-2460" y="860" as="sourcePoint" />
            <mxPoint x="-2000" y="960" as="targetPoint" />
            <Array as="points">
              <mxPoint x="-2460" y="1018" />
            </Array>
          </mxGeometry>
        </mxCell>
        <mxCell id="vLZ2Rf8hTbHAqbCH0FMH-219" value="1" style="edgeLabel;resizable=0;html=1;align=left;verticalAlign=bottom;" parent="vLZ2Rf8hTbHAqbCH0FMH-218" connectable="0" vertex="1">
          <mxGeometry x="-1" relative="1" as="geometry">
            <mxPoint y="22" as="offset" />
          </mxGeometry>
        </mxCell>
        <mxCell id="vLZ2Rf8hTbHAqbCH0FMH-220" value="1" style="edgeLabel;resizable=0;html=1;align=right;verticalAlign=bottom;" parent="vLZ2Rf8hTbHAqbCH0FMH-218" connectable="0" vertex="1">
          <mxGeometry x="1" relative="1" as="geometry">
            <mxPoint x="-3" as="offset" />
          </mxGeometry>
        </mxCell>
        <mxCell id="vLZ2Rf8hTbHAqbCH0FMH-221" value="" style="endArrow=none;html=1;edgeStyle=orthogonalEdgeStyle;rounded=0;exitX=1;exitY=0.5;exitDx=0;exitDy=0;entryX=0.5;entryY=0;entryDx=0;entryDy=0;" parent="1" source="vLZ2Rf8hTbHAqbCH0FMH-217" target="vLZ2Rf8hTbHAqbCH0FMH-155" edge="1">
          <mxGeometry relative="1" as="geometry">
            <mxPoint x="-2140" y="950" as="sourcePoint" />
            <mxPoint x="-1980" y="950" as="targetPoint" />
          </mxGeometry>
        </mxCell>
        <mxCell id="vLZ2Rf8hTbHAqbCH0FMH-222" value="1" style="edgeLabel;resizable=0;html=1;align=left;verticalAlign=bottom;" parent="vLZ2Rf8hTbHAqbCH0FMH-221" connectable="0" vertex="1">
          <mxGeometry x="-1" relative="1" as="geometry" />
        </mxCell>
        <mxCell id="vLZ2Rf8hTbHAqbCH0FMH-223" value="1" style="edgeLabel;resizable=0;html=1;align=right;verticalAlign=bottom;" parent="vLZ2Rf8hTbHAqbCH0FMH-221" connectable="0" vertex="1">
          <mxGeometry x="1" relative="1" as="geometry">
            <mxPoint x="-11" y="-2" as="offset" />
          </mxGeometry>
        </mxCell>
        <mxCell id="vLZ2Rf8hTbHAqbCH0FMH-224" value="LoginTokenRequest" style="swimlane;fontStyle=1;align=center;verticalAlign=top;childLayout=stackLayout;horizontal=1;startSize=26;horizontalStack=0;resizeParent=1;resizeParentMax=0;resizeLast=0;collapsible=1;marginBottom=0;whiteSpace=wrap;html=1;" parent="1" vertex="1">
          <mxGeometry x="-2790" y="690" width="160" height="80" as="geometry" />
        </mxCell>
        <mxCell id="vLZ2Rf8hTbHAqbCH0FMH-225" value="- token: String&lt;div&gt;- userId: Long&lt;/div&gt;" style="text;strokeColor=none;fillColor=none;align=left;verticalAlign=top;spacingLeft=4;spacingRight=4;overflow=hidden;rotatable=0;points=[[0,0.5],[1,0.5]];portConstraint=eastwest;whiteSpace=wrap;html=1;" parent="vLZ2Rf8hTbHAqbCH0FMH-224" vertex="1">
          <mxGeometry y="26" width="160" height="34" as="geometry" />
        </mxCell>
        <mxCell id="vLZ2Rf8hTbHAqbCH0FMH-226" value="" style="line;strokeWidth=1;fillColor=none;align=left;verticalAlign=middle;spacingTop=-1;spacingLeft=3;spacingRight=3;rotatable=0;labelPosition=right;points=[];portConstraint=eastwest;strokeColor=inherit;" parent="vLZ2Rf8hTbHAqbCH0FMH-224" vertex="1">
          <mxGeometry y="60" width="160" height="20" as="geometry" />
        </mxCell>
        <mxCell id="vLZ2Rf8hTbHAqbCH0FMH-228" value="LoginRequest" style="swimlane;fontStyle=1;align=center;verticalAlign=top;childLayout=stackLayout;horizontal=1;startSize=26;horizontalStack=0;resizeParent=1;resizeParentMax=0;resizeLast=0;collapsible=1;marginBottom=0;whiteSpace=wrap;html=1;" parent="1" vertex="1">
          <mxGeometry x="-2975" y="690" width="160" height="80" as="geometry" />
        </mxCell>
        <mxCell id="vLZ2Rf8hTbHAqbCH0FMH-229" value="- email: String&lt;div&gt;- password: Long&lt;/div&gt;" style="text;strokeColor=none;fillColor=none;align=left;verticalAlign=top;spacingLeft=4;spacingRight=4;overflow=hidden;rotatable=0;points=[[0,0.5],[1,0.5]];portConstraint=eastwest;whiteSpace=wrap;html=1;" parent="vLZ2Rf8hTbHAqbCH0FMH-228" vertex="1">
          <mxGeometry y="26" width="160" height="34" as="geometry" />
        </mxCell>
        <mxCell id="vLZ2Rf8hTbHAqbCH0FMH-230" value="" style="line;strokeWidth=1;fillColor=none;align=left;verticalAlign=middle;spacingTop=-1;spacingLeft=3;spacingRight=3;rotatable=0;labelPosition=right;points=[];portConstraint=eastwest;strokeColor=inherit;" parent="vLZ2Rf8hTbHAqbCH0FMH-228" vertex="1">
          <mxGeometry y="60" width="160" height="20" as="geometry" />
        </mxCell>
        <mxCell id="vLZ2Rf8hTbHAqbCH0FMH-231" value="&lt;i&gt;&amp;lt;&amp;lt;Interface&amp;gt;&amp;gt;&lt;/i&gt;&lt;div&gt;&lt;i&gt;EmailSender&lt;/i&gt;&lt;/div&gt;" style="swimlane;fontStyle=1;align=center;verticalAlign=top;childLayout=stackLayout;horizontal=1;startSize=40;horizontalStack=0;resizeParent=1;resizeParentMax=0;resizeLast=0;collapsible=1;marginBottom=0;whiteSpace=wrap;html=1;" parent="1" vertex="1">
          <mxGeometry x="-2800" y="960" width="210" height="86" as="geometry" />
        </mxCell>
        <mxCell id="vLZ2Rf8hTbHAqbCH0FMH-233" value="" style="line;strokeWidth=1;fillColor=none;align=left;verticalAlign=middle;spacingTop=-1;spacingLeft=3;spacingRight=3;rotatable=0;labelPosition=right;points=[];portConstraint=eastwest;strokeColor=inherit;" parent="vLZ2Rf8hTbHAqbCH0FMH-231" vertex="1">
          <mxGeometry y="40" width="210" height="20" as="geometry" />
        </mxCell>
        <mxCell id="vLZ2Rf8hTbHAqbCH0FMH-234" value="+ send(String, String, String): void" style="text;strokeColor=none;fillColor=none;align=left;verticalAlign=top;spacingLeft=4;spacingRight=4;overflow=hidden;rotatable=0;points=[[0,0.5],[1,0.5]];portConstraint=eastwest;whiteSpace=wrap;html=1;" parent="vLZ2Rf8hTbHAqbCH0FMH-231" vertex="1">
          <mxGeometry y="60" width="210" height="26" as="geometry" />
        </mxCell>
        <mxCell id="vLZ2Rf8hTbHAqbCH0FMH-235" value="" style="endArrow=none;html=1;edgeStyle=orthogonalEdgeStyle;rounded=0;exitX=0.214;exitY=0.979;exitDx=0;exitDy=0;exitPerimeter=0;entryX=0.5;entryY=0;entryDx=0;entryDy=0;" parent="1" source="vLZ2Rf8hTbHAqbCH0FMH-217" target="vLZ2Rf8hTbHAqbCH0FMH-231" edge="1">
          <mxGeometry relative="1" as="geometry">
            <mxPoint x="-2450" y="990" as="sourcePoint" />
            <mxPoint x="-2290" y="990" as="targetPoint" />
            <Array as="points">
              <mxPoint x="-2531" y="910" />
              <mxPoint x="-2720" y="910" />
            </Array>
          </mxGeometry>
        </mxCell>
        <mxCell id="vLZ2Rf8hTbHAqbCH0FMH-236" value="1" style="edgeLabel;resizable=0;html=1;align=left;verticalAlign=bottom;" parent="vLZ2Rf8hTbHAqbCH0FMH-235" connectable="0" vertex="1">
          <mxGeometry x="-1" relative="1" as="geometry">
            <mxPoint x="-19" y="20" as="offset" />
          </mxGeometry>
        </mxCell>
        <mxCell id="vLZ2Rf8hTbHAqbCH0FMH-237" value="1" style="edgeLabel;resizable=0;html=1;align=right;verticalAlign=bottom;" parent="vLZ2Rf8hTbHAqbCH0FMH-235" connectable="0" vertex="1">
          <mxGeometry x="1" relative="1" as="geometry">
            <mxPoint x="-4" y="-1" as="offset" />
          </mxGeometry>
        </mxCell>
        <mxCell id="vLZ2Rf8hTbHAqbCH0FMH-238" value="" style="endArrow=none;html=1;edgeStyle=orthogonalEdgeStyle;rounded=0;entryX=0.25;entryY=0;entryDx=0;entryDy=0;exitX=0.367;exitY=0.95;exitDx=0;exitDy=0;exitPerimeter=0;" parent="1" source="vLZ2Rf8hTbHAqbCH0FMH-234" target="vLZ2Rf8hTbHAqbCH0FMH-196" edge="1">
          <mxGeometry relative="1" as="geometry">
            <mxPoint x="-2723" y="1050" as="sourcePoint" />
            <mxPoint x="-2200" y="1230" as="targetPoint" />
            <Array as="points">
              <mxPoint x="-2723" y="1170" />
              <mxPoint x="-2285" y="1170" />
            </Array>
          </mxGeometry>
        </mxCell>
        <mxCell id="vLZ2Rf8hTbHAqbCH0FMH-239" value="1" style="edgeLabel;resizable=0;html=1;align=left;verticalAlign=bottom;" parent="vLZ2Rf8hTbHAqbCH0FMH-238" connectable="0" vertex="1">
          <mxGeometry x="-1" relative="1" as="geometry">
            <mxPoint x="5" y="20" as="offset" />
          </mxGeometry>
        </mxCell>
        <mxCell id="vLZ2Rf8hTbHAqbCH0FMH-240" value="1" style="edgeLabel;resizable=0;html=1;align=right;verticalAlign=bottom;" parent="vLZ2Rf8hTbHAqbCH0FMH-238" connectable="0" vertex="1">
          <mxGeometry x="1" relative="1" as="geometry">
            <mxPoint x="-6" y="-5" as="offset" />
          </mxGeometry>
        </mxCell>
        <mxCell id="vLZ2Rf8hTbHAqbCH0FMH-241" value="EmailService" style="swimlane;fontStyle=1;align=center;verticalAlign=top;childLayout=stackLayout;horizontal=1;startSize=26;horizontalStack=0;resizeParent=1;resizeParentMax=0;resizeLast=0;collapsible=1;marginBottom=0;whiteSpace=wrap;html=1;" parent="1" vertex="1">
          <mxGeometry x="-3150" y="960" width="210" height="114" as="geometry" />
        </mxCell>
        <mxCell id="vLZ2Rf8hTbHAqbCH0FMH-242" value="- LOGGER: Logger&lt;div&gt;- mailSender: JavaMailSender&lt;/div&gt;" style="text;strokeColor=none;fillColor=none;align=left;verticalAlign=top;spacingLeft=4;spacingRight=4;overflow=hidden;rotatable=0;points=[[0,0.5],[1,0.5]];portConstraint=eastwest;whiteSpace=wrap;html=1;" parent="vLZ2Rf8hTbHAqbCH0FMH-241" vertex="1">
          <mxGeometry y="26" width="210" height="54" as="geometry" />
        </mxCell>
        <mxCell id="vLZ2Rf8hTbHAqbCH0FMH-243" value="" style="line;strokeWidth=1;fillColor=none;align=left;verticalAlign=middle;spacingTop=-1;spacingLeft=3;spacingRight=3;rotatable=0;labelPosition=right;points=[];portConstraint=eastwest;strokeColor=inherit;" parent="vLZ2Rf8hTbHAqbCH0FMH-241" vertex="1">
          <mxGeometry y="80" width="210" height="8" as="geometry" />
        </mxCell>
        <mxCell id="vLZ2Rf8hTbHAqbCH0FMH-244" value="+ send(String, String, String): void" style="text;strokeColor=none;fillColor=none;align=left;verticalAlign=top;spacingLeft=4;spacingRight=4;overflow=hidden;rotatable=0;points=[[0,0.5],[1,0.5]];portConstraint=eastwest;whiteSpace=wrap;html=1;" parent="vLZ2Rf8hTbHAqbCH0FMH-241" vertex="1">
          <mxGeometry y="88" width="210" height="26" as="geometry" />
        </mxCell>
        <mxCell id="vLZ2Rf8hTbHAqbCH0FMH-245" value="" style="endArrow=none;html=1;edgeStyle=orthogonalEdgeStyle;rounded=0;entryX=0;entryY=0.25;entryDx=0;entryDy=0;" parent="1" target="vLZ2Rf8hTbHAqbCH0FMH-231" edge="1">
          <mxGeometry relative="1" as="geometry">
            <mxPoint x="-2930" y="990" as="sourcePoint" />
            <mxPoint x="-2670" y="1060" as="targetPoint" />
            <Array as="points">
              <mxPoint x="-2930" y="982" />
              <mxPoint x="-2940" y="982" />
            </Array>
          </mxGeometry>
        </mxCell>
        <mxCell id="vLZ2Rf8hTbHAqbCH0FMH-246" value="1" style="edgeLabel;resizable=0;html=1;align=left;verticalAlign=bottom;" parent="vLZ2Rf8hTbHAqbCH0FMH-245" connectable="0" vertex="1">
          <mxGeometry x="-1" relative="1" as="geometry">
            <mxPoint y="12" as="offset" />
          </mxGeometry>
        </mxCell>
        <mxCell id="vLZ2Rf8hTbHAqbCH0FMH-247" value="1" style="edgeLabel;resizable=0;html=1;align=right;verticalAlign=bottom;" parent="vLZ2Rf8hTbHAqbCH0FMH-245" connectable="0" vertex="1">
          <mxGeometry x="1" relative="1" as="geometry">
            <mxPoint y="19" as="offset" />
          </mxGeometry>
        </mxCell>
        <mxCell id="vLZ2Rf8hTbHAqbCH0FMH-248" value="ImageUploadService" style="swimlane;fontStyle=1;align=center;verticalAlign=top;childLayout=stackLayout;horizontal=1;startSize=26;horizontalStack=0;resizeParent=1;resizeParentMax=0;resizeLast=0;collapsible=1;marginBottom=0;whiteSpace=wrap;html=1;" parent="1" vertex="1">
          <mxGeometry x="-1480" y="830" width="290" height="100" as="geometry" />
        </mxCell>
        <mxCell id="vLZ2Rf8hTbHAqbCH0FMH-249" value="- userAccountRepository: UserAccountRepository" style="text;strokeColor=none;fillColor=none;align=left;verticalAlign=top;spacingLeft=4;spacingRight=4;overflow=hidden;rotatable=0;points=[[0,0.5],[1,0.5]];portConstraint=eastwest;whiteSpace=wrap;html=1;" parent="vLZ2Rf8hTbHAqbCH0FMH-248" vertex="1">
          <mxGeometry y="26" width="290" height="26" as="geometry" />
        </mxCell>
        <mxCell id="vLZ2Rf8hTbHAqbCH0FMH-250" value="" style="line;strokeWidth=1;fillColor=none;align=left;verticalAlign=middle;spacingTop=-1;spacingLeft=3;spacingRight=3;rotatable=0;labelPosition=right;points=[];portConstraint=eastwest;strokeColor=inherit;" parent="vLZ2Rf8hTbHAqbCH0FMH-248" vertex="1">
          <mxGeometry y="52" width="290" height="8" as="geometry" />
        </mxCell>
        <mxCell id="vLZ2Rf8hTbHAqbCH0FMH-251" value="+ updateImage(Long, MultipartFile): void&lt;div&gt;+ deleteImage(Long): void&lt;/div&gt;" style="text;strokeColor=none;fillColor=none;align=left;verticalAlign=top;spacingLeft=4;spacingRight=4;overflow=hidden;rotatable=0;points=[[0,0.5],[1,0.5]];portConstraint=eastwest;whiteSpace=wrap;html=1;" parent="vLZ2Rf8hTbHAqbCH0FMH-248" vertex="1">
          <mxGeometry y="60" width="290" height="40" as="geometry" />
        </mxCell>
        <mxCell id="vLZ2Rf8hTbHAqbCH0FMH-252" value="" style="endArrow=none;html=1;edgeStyle=orthogonalEdgeStyle;rounded=0;exitX=1;exitY=0.5;exitDx=0;exitDy=0;" parent="1" source="vLZ2Rf8hTbHAqbCH0FMH-249" edge="1">
          <mxGeometry relative="1" as="geometry">
            <mxPoint x="-1180" y="870" as="sourcePoint" />
            <mxPoint x="-1020" y="950" as="targetPoint" />
            <Array as="points">
              <mxPoint x="-1020" y="869" />
              <mxPoint x="-1020" y="950" />
            </Array>
          </mxGeometry>
        </mxCell>
        <mxCell id="vLZ2Rf8hTbHAqbCH0FMH-253" value="0..1" style="edgeLabel;resizable=0;html=1;align=left;verticalAlign=bottom;" parent="vLZ2Rf8hTbHAqbCH0FMH-252" connectable="0" vertex="1">
          <mxGeometry x="-1" relative="1" as="geometry" />
        </mxCell>
        <mxCell id="vLZ2Rf8hTbHAqbCH0FMH-254" value="1" style="edgeLabel;resizable=0;html=1;align=right;verticalAlign=bottom;" parent="vLZ2Rf8hTbHAqbCH0FMH-252" connectable="0" vertex="1">
          <mxGeometry x="1" relative="1" as="geometry">
            <mxPoint x="-4" y="-3" as="offset" />
          </mxGeometry>
        </mxCell>
        <mxCell id="vLZ2Rf8hTbHAqbCH0FMH-255" value="ImageUploadController" style="swimlane;fontStyle=1;align=center;verticalAlign=top;childLayout=stackLayout;horizontal=1;startSize=26;horizontalStack=0;resizeParent=1;resizeParentMax=0;resizeLast=0;collapsible=1;marginBottom=0;whiteSpace=wrap;html=1;" parent="1" vertex="1">
          <mxGeometry x="-1990" y="702" width="370" height="100" as="geometry" />
        </mxCell>
        <mxCell id="vLZ2Rf8hTbHAqbCH0FMH-256" value="- imageUploadService: ImageUploadService" style="text;strokeColor=none;fillColor=none;align=left;verticalAlign=top;spacingLeft=4;spacingRight=4;overflow=hidden;rotatable=0;points=[[0,0.5],[1,0.5]];portConstraint=eastwest;whiteSpace=wrap;html=1;" parent="vLZ2Rf8hTbHAqbCH0FMH-255" vertex="1">
          <mxGeometry y="26" width="370" height="26" as="geometry" />
        </mxCell>
        <mxCell id="vLZ2Rf8hTbHAqbCH0FMH-257" value="" style="line;strokeWidth=1;fillColor=none;align=left;verticalAlign=middle;spacingTop=-1;spacingLeft=3;spacingRight=3;rotatable=0;labelPosition=right;points=[];portConstraint=eastwest;strokeColor=inherit;" parent="vLZ2Rf8hTbHAqbCH0FMH-255" vertex="1">
          <mxGeometry y="52" width="370" height="8" as="geometry" />
        </mxCell>
        <mxCell id="vLZ2Rf8hTbHAqbCH0FMH-258" value="+ uploadImage(Long, MultipartFile): ResponseEntity&amp;lt;String&amp;gt;&lt;div&gt;+ deleteImage(Long): ResponseEntity&amp;lt;String&amp;gt;&lt;/div&gt;" style="text;strokeColor=none;fillColor=none;align=left;verticalAlign=top;spacingLeft=4;spacingRight=4;overflow=hidden;rotatable=0;points=[[0,0.5],[1,0.5]];portConstraint=eastwest;whiteSpace=wrap;html=1;" parent="vLZ2Rf8hTbHAqbCH0FMH-255" vertex="1">
          <mxGeometry y="60" width="370" height="40" as="geometry" />
        </mxCell>
        <mxCell id="vLZ2Rf8hTbHAqbCH0FMH-259" value="" style="endArrow=none;html=1;edgeStyle=orthogonalEdgeStyle;rounded=0;exitX=0.728;exitY=1.025;exitDx=0;exitDy=0;exitPerimeter=0;entryX=0;entryY=0.5;entryDx=0;entryDy=0;" parent="1" source="vLZ2Rf8hTbHAqbCH0FMH-258" target="vLZ2Rf8hTbHAqbCH0FMH-249" edge="1">
          <mxGeometry relative="1" as="geometry">
            <mxPoint x="-1700" y="830" as="sourcePoint" />
            <mxPoint x="-1540" y="830" as="targetPoint" />
          </mxGeometry>
        </mxCell>
        <mxCell id="vLZ2Rf8hTbHAqbCH0FMH-260" value="1" style="edgeLabel;resizable=0;html=1;align=left;verticalAlign=bottom;" parent="vLZ2Rf8hTbHAqbCH0FMH-259" connectable="0" vertex="1">
          <mxGeometry x="-1" relative="1" as="geometry">
            <mxPoint x="6" y="19" as="offset" />
          </mxGeometry>
        </mxCell>
        <mxCell id="vLZ2Rf8hTbHAqbCH0FMH-261" value="1" style="edgeLabel;resizable=0;html=1;align=right;verticalAlign=bottom;" parent="vLZ2Rf8hTbHAqbCH0FMH-259" connectable="0" vertex="1">
          <mxGeometry x="1" relative="1" as="geometry">
            <mxPoint x="-9" y="-2" as="offset" />
          </mxGeometry>
        </mxCell>
        <mxCell id="vLZ2Rf8hTbHAqbCH0FMH-262" value="FriendListService" style="swimlane;fontStyle=1;align=center;verticalAlign=top;childLayout=stackLayout;horizontal=1;startSize=26;horizontalStack=0;resizeParent=1;resizeParentMax=0;resizeLast=0;collapsible=1;marginBottom=0;whiteSpace=wrap;html=1;" parent="1" vertex="1">
          <mxGeometry x="-3130" y="1198" width="360" height="220" as="geometry" />
        </mxCell>
        <mxCell id="vLZ2Rf8hTbHAqbCH0FMH-263" value="- friendListRepository: FrindListRepository&lt;div&gt;- emailSender: EmailSender&lt;/div&gt;" style="text;strokeColor=none;fillColor=none;align=left;verticalAlign=top;spacingLeft=4;spacingRight=4;overflow=hidden;rotatable=0;points=[[0,0.5],[1,0.5]];portConstraint=eastwest;whiteSpace=wrap;html=1;" parent="vLZ2Rf8hTbHAqbCH0FMH-262" vertex="1">
          <mxGeometry y="26" width="360" height="44" as="geometry" />
        </mxCell>
        <mxCell id="vLZ2Rf8hTbHAqbCH0FMH-264" value="" style="line;strokeWidth=1;fillColor=none;align=left;verticalAlign=middle;spacingTop=-1;spacingLeft=3;spacingRight=3;rotatable=0;labelPosition=right;points=[];portConstraint=eastwest;strokeColor=inherit;" parent="vLZ2Rf8hTbHAqbCH0FMH-262" vertex="1">
          <mxGeometry y="70" width="360" height="8" as="geometry" />
        </mxCell>
        <mxCell id="vLZ2Rf8hTbHAqbCH0FMH-265" value="- convertToDTO(UserAccount): UserDTO&lt;div&gt;+ getFriendList(Integer): Optional&amp;lt;List&amp;lt;UserDTO&amp;gt;&amp;gt;&lt;/div&gt;&lt;div&gt;+ getFriendListRequest(Integer): Optional&amp;lt;List&amp;lt;UserDTO&amp;gt;&amp;gt;&lt;/div&gt;&lt;div&gt;+ friendshipRequest(Integer, Integer): String&lt;/div&gt;&lt;div&gt;+ buildFriendRequestEmail(String, String, String): String&lt;/div&gt;&lt;div&gt;+ friendshipAccept(Integer, Integer): String&lt;/div&gt;&lt;div&gt;+ friendshipReject(Integer, Integer): String&lt;/div&gt;&lt;div&gt;+ removeFriend(Integer, Integer): String&lt;/div&gt;&lt;div&gt;+ getFreindsFriendList(Long, Long): Optional&amp;lt;List&amp;lt;UserDTO&amp;gt;&amp;gt;&lt;/div&gt;" style="text;strokeColor=none;fillColor=none;align=left;verticalAlign=top;spacingLeft=4;spacingRight=4;overflow=hidden;rotatable=0;points=[[0,0.5],[1,0.5]];portConstraint=eastwest;whiteSpace=wrap;html=1;" parent="vLZ2Rf8hTbHAqbCH0FMH-262" vertex="1">
          <mxGeometry y="78" width="360" height="142" as="geometry" />
        </mxCell>
        <mxCell id="vLZ2Rf8hTbHAqbCH0FMH-266" value="" style="endArrow=none;html=1;edgeStyle=orthogonalEdgeStyle;rounded=0;exitX=0.75;exitY=0;exitDx=0;exitDy=0;entryX=0;entryY=0.5;entryDx=0;entryDy=0;" parent="1" source="vLZ2Rf8hTbHAqbCH0FMH-262" target="vLZ2Rf8hTbHAqbCH0FMH-234" edge="1">
          <mxGeometry relative="1" as="geometry">
            <mxPoint x="-2800" y="1240" as="sourcePoint" />
            <mxPoint x="-2640" y="1240" as="targetPoint" />
          </mxGeometry>
        </mxCell>
        <mxCell id="vLZ2Rf8hTbHAqbCH0FMH-267" value="0..1" style="edgeLabel;resizable=0;html=1;align=left;verticalAlign=bottom;" parent="vLZ2Rf8hTbHAqbCH0FMH-266" connectable="0" vertex="1">
          <mxGeometry x="-1" relative="1" as="geometry" />
        </mxCell>
        <mxCell id="vLZ2Rf8hTbHAqbCH0FMH-268" value="1" style="edgeLabel;resizable=0;html=1;align=right;verticalAlign=bottom;" parent="vLZ2Rf8hTbHAqbCH0FMH-266" connectable="0" vertex="1">
          <mxGeometry x="1" relative="1" as="geometry">
            <mxPoint x="-4" as="offset" />
          </mxGeometry>
        </mxCell>
        <mxCell id="vLZ2Rf8hTbHAqbCH0FMH-269" value="FriendListController" style="swimlane;fontStyle=1;align=center;verticalAlign=top;childLayout=stackLayout;horizontal=1;startSize=26;horizontalStack=0;resizeParent=1;resizeParentMax=0;resizeLast=0;collapsible=1;marginBottom=0;whiteSpace=wrap;html=1;" parent="1" vertex="1">
          <mxGeometry x="-3540" y="1198" width="330" height="160" as="geometry" />
        </mxCell>
        <mxCell id="vLZ2Rf8hTbHAqbCH0FMH-270" value="- friendListService: FrindListService" style="text;strokeColor=none;fillColor=none;align=left;verticalAlign=top;spacingLeft=4;spacingRight=4;overflow=hidden;rotatable=0;points=[[0,0.5],[1,0.5]];portConstraint=eastwest;whiteSpace=wrap;html=1;" parent="vLZ2Rf8hTbHAqbCH0FMH-269" vertex="1">
          <mxGeometry y="26" width="330" height="24" as="geometry" />
        </mxCell>
        <mxCell id="vLZ2Rf8hTbHAqbCH0FMH-271" value="" style="line;strokeWidth=1;fillColor=none;align=left;verticalAlign=middle;spacingTop=-1;spacingLeft=3;spacingRight=3;rotatable=0;labelPosition=right;points=[];portConstraint=eastwest;strokeColor=inherit;" parent="vLZ2Rf8hTbHAqbCH0FMH-269" vertex="1">
          <mxGeometry y="50" width="330" height="8" as="geometry" />
        </mxCell>
        <mxCell id="vLZ2Rf8hTbHAqbCH0FMH-272" value="+ getFriends(Integer): List&amp;lt;UserDTO&amp;gt;&lt;div&gt;+ friendshipRequest(List&amp;lt;Long&amp;gt;): String&lt;/div&gt;&lt;div&gt;+ friendshipAccept(Long, Long): String&lt;/div&gt;&lt;div&gt;+ friendshipReject(Long, Long): String&lt;/div&gt;&lt;div&gt;+ removeFriend(List&amp;lt;Long&amp;gt;): String&lt;/div&gt;&lt;div&gt;+ getFriendsFriendList(Long, Long): List&amp;lt;UserDTO&amp;gt;&lt;/div&gt;" style="text;strokeColor=none;fillColor=none;align=left;verticalAlign=top;spacingLeft=4;spacingRight=4;overflow=hidden;rotatable=0;points=[[0,0.5],[1,0.5]];portConstraint=eastwest;whiteSpace=wrap;html=1;" parent="vLZ2Rf8hTbHAqbCH0FMH-269" vertex="1">
          <mxGeometry y="58" width="330" height="102" as="geometry" />
        </mxCell>
        <mxCell id="vLZ2Rf8hTbHAqbCH0FMH-273" value="" style="endArrow=none;html=1;edgeStyle=orthogonalEdgeStyle;rounded=0;exitX=1;exitY=0.5;exitDx=0;exitDy=0;entryX=0;entryY=0.5;entryDx=0;entryDy=0;" parent="1" source="vLZ2Rf8hTbHAqbCH0FMH-270" target="vLZ2Rf8hTbHAqbCH0FMH-263" edge="1">
          <mxGeometry relative="1" as="geometry">
            <mxPoint x="-3270" y="1230" as="sourcePoint" />
            <mxPoint x="-3110" y="1230" as="targetPoint" />
            <Array as="points">
              <mxPoint x="-3210" y="1246" />
            </Array>
          </mxGeometry>
        </mxCell>
        <mxCell id="vLZ2Rf8hTbHAqbCH0FMH-274" value="1" style="edgeLabel;resizable=0;html=1;align=left;verticalAlign=bottom;" parent="vLZ2Rf8hTbHAqbCH0FMH-273" connectable="0" vertex="1">
          <mxGeometry x="-1" relative="1" as="geometry">
            <mxPoint x="1" y="10" as="offset" />
          </mxGeometry>
        </mxCell>
        <mxCell id="vLZ2Rf8hTbHAqbCH0FMH-275" value="1" style="edgeLabel;resizable=0;html=1;align=right;verticalAlign=bottom;" parent="vLZ2Rf8hTbHAqbCH0FMH-273" connectable="0" vertex="1">
          <mxGeometry x="1" relative="1" as="geometry" />
        </mxCell>
        <mxCell id="vLZ2Rf8hTbHAqbCH0FMH-276" value="&lt;i&gt;&amp;lt;&amp;lt;Interface&amp;gt;&amp;gt;&lt;/i&gt;&lt;div&gt;&lt;i&gt;FriendListRepository&lt;/i&gt;&lt;/div&gt;" style="swimlane;fontStyle=1;align=center;verticalAlign=top;childLayout=stackLayout;horizontal=1;startSize=37;horizontalStack=0;resizeParent=1;resizeParentMax=0;resizeLast=0;collapsible=1;marginBottom=0;whiteSpace=wrap;html=1;" parent="1" vertex="1">
          <mxGeometry x="-3455" y="1083" width="160" height="60" as="geometry" />
        </mxCell>
        <mxCell id="vLZ2Rf8hTbHAqbCH0FMH-278" value="" style="line;strokeWidth=1;fillColor=none;align=left;verticalAlign=middle;spacingTop=-1;spacingLeft=3;spacingRight=3;rotatable=0;labelPosition=right;points=[];portConstraint=eastwest;strokeColor=inherit;" parent="vLZ2Rf8hTbHAqbCH0FMH-276" vertex="1">
          <mxGeometry y="37" width="160" height="23" as="geometry" />
        </mxCell>
        <mxCell id="vLZ2Rf8hTbHAqbCH0FMH-280" value="" style="endArrow=none;html=1;edgeStyle=orthogonalEdgeStyle;rounded=0;exitX=1;exitY=0.25;exitDx=0;exitDy=0;entryX=0.25;entryY=0;entryDx=0;entryDy=0;" parent="1" source="vLZ2Rf8hTbHAqbCH0FMH-276" target="vLZ2Rf8hTbHAqbCH0FMH-262" edge="1">
          <mxGeometry relative="1" as="geometry">
            <mxPoint x="-3190" y="1170" as="sourcePoint" />
            <mxPoint x="-3030" y="1170" as="targetPoint" />
          </mxGeometry>
        </mxCell>
        <mxCell id="vLZ2Rf8hTbHAqbCH0FMH-281" value="1" style="edgeLabel;resizable=0;html=1;align=left;verticalAlign=bottom;" parent="vLZ2Rf8hTbHAqbCH0FMH-280" connectable="0" vertex="1">
          <mxGeometry x="-1" relative="1" as="geometry" />
        </mxCell>
        <mxCell id="vLZ2Rf8hTbHAqbCH0FMH-282" value="0..1" style="edgeLabel;resizable=0;html=1;align=right;verticalAlign=bottom;" parent="vLZ2Rf8hTbHAqbCH0FMH-280" connectable="0" vertex="1">
          <mxGeometry x="1" relative="1" as="geometry">
            <mxPoint x="-5" y="-3" as="offset" />
          </mxGeometry>
        </mxCell>
        <mxCell id="vLZ2Rf8hTbHAqbCH0FMH-283" value="ProfileService" style="swimlane;fontStyle=1;align=center;verticalAlign=top;childLayout=stackLayout;horizontal=1;startSize=26;horizontalStack=0;resizeParent=1;resizeParentMax=0;resizeLast=0;collapsible=1;marginBottom=0;whiteSpace=wrap;html=1;" parent="1" vertex="1">
          <mxGeometry x="-181" y="930" width="280" height="100" as="geometry" />
        </mxCell>
        <mxCell id="vLZ2Rf8hTbHAqbCH0FMH-284" value="- profileRepository: ProfileRepository" style="text;strokeColor=none;fillColor=none;align=left;verticalAlign=top;spacingLeft=4;spacingRight=4;overflow=hidden;rotatable=0;points=[[0,0.5],[1,0.5]];portConstraint=eastwest;whiteSpace=wrap;html=1;" parent="vLZ2Rf8hTbHAqbCH0FMH-283" vertex="1">
          <mxGeometry y="26" width="280" height="26" as="geometry" />
        </mxCell>
        <mxCell id="vLZ2Rf8hTbHAqbCH0FMH-285" value="" style="line;strokeWidth=1;fillColor=none;align=left;verticalAlign=middle;spacingTop=-1;spacingLeft=3;spacingRight=3;rotatable=0;labelPosition=right;points=[];portConstraint=eastwest;strokeColor=inherit;" parent="vLZ2Rf8hTbHAqbCH0FMH-283" vertex="1">
          <mxGeometry y="52" width="280" height="8" as="geometry" />
        </mxCell>
        <mxCell id="vLZ2Rf8hTbHAqbCH0FMH-286" value="+ getProfile(Long): Optional&amp;lt;UserAccount&amp;gt;&lt;div&gt;+ getUserDecks(Long): List&amp;lt;Deck&amp;gt;&lt;/div&gt;" style="text;strokeColor=none;fillColor=none;align=left;verticalAlign=top;spacingLeft=4;spacingRight=4;overflow=hidden;rotatable=0;points=[[0,0.5],[1,0.5]];portConstraint=eastwest;whiteSpace=wrap;html=1;" parent="vLZ2Rf8hTbHAqbCH0FMH-283" vertex="1">
          <mxGeometry y="60" width="280" height="40" as="geometry" />
        </mxCell>
        <mxCell id="vLZ2Rf8hTbHAqbCH0FMH-287" value="&amp;lt;&amp;lt;Interface&amp;gt;&amp;gt;&lt;div&gt;ProfileRepository&lt;/div&gt;" style="swimlane;fontStyle=1;align=center;verticalAlign=top;childLayout=stackLayout;horizontal=1;startSize=40;horizontalStack=0;resizeParent=1;resizeParentMax=0;resizeLast=0;collapsible=1;marginBottom=0;whiteSpace=wrap;html=1;" parent="1" vertex="1">
          <mxGeometry x="472" y="930" width="230" height="86" as="geometry" />
        </mxCell>
        <mxCell id="vLZ2Rf8hTbHAqbCH0FMH-289" value="" style="line;strokeWidth=1;fillColor=none;align=left;verticalAlign=middle;spacingTop=-1;spacingLeft=3;spacingRight=3;rotatable=0;labelPosition=right;points=[];portConstraint=eastwest;strokeColor=inherit;" parent="vLZ2Rf8hTbHAqbCH0FMH-287" vertex="1">
          <mxGeometry y="40" width="230" height="20" as="geometry" />
        </mxCell>
        <mxCell id="vLZ2Rf8hTbHAqbCH0FMH-290" value="+ findDecksByUserId(Long): List&amp;lt;Deck&amp;gt;" style="text;strokeColor=none;fillColor=none;align=left;verticalAlign=top;spacingLeft=4;spacingRight=4;overflow=hidden;rotatable=0;points=[[0,0.5],[1,0.5]];portConstraint=eastwest;whiteSpace=wrap;html=1;" parent="vLZ2Rf8hTbHAqbCH0FMH-287" vertex="1">
          <mxGeometry y="60" width="230" height="26" as="geometry" />
        </mxCell>
        <mxCell id="vLZ2Rf8hTbHAqbCH0FMH-291" value="ProfileController" style="swimlane;fontStyle=1;align=center;verticalAlign=top;childLayout=stackLayout;horizontal=1;startSize=26;horizontalStack=0;resizeParent=1;resizeParentMax=0;resizeLast=0;collapsible=1;marginBottom=0;whiteSpace=wrap;html=1;" parent="1" vertex="1">
          <mxGeometry x="170" y="930" width="230" height="86" as="geometry" />
        </mxCell>
        <mxCell id="vLZ2Rf8hTbHAqbCH0FMH-292" value="- profileService: ProfileService" style="text;strokeColor=none;fillColor=none;align=left;verticalAlign=top;spacingLeft=4;spacingRight=4;overflow=hidden;rotatable=0;points=[[0,0.5],[1,0.5]];portConstraint=eastwest;whiteSpace=wrap;html=1;" parent="vLZ2Rf8hTbHAqbCH0FMH-291" vertex="1">
          <mxGeometry y="26" width="230" height="26" as="geometry" />
        </mxCell>
        <mxCell id="vLZ2Rf8hTbHAqbCH0FMH-293" value="" style="line;strokeWidth=1;fillColor=none;align=left;verticalAlign=middle;spacingTop=-1;spacingLeft=3;spacingRight=3;rotatable=0;labelPosition=right;points=[];portConstraint=eastwest;strokeColor=inherit;" parent="vLZ2Rf8hTbHAqbCH0FMH-291" vertex="1">
          <mxGeometry y="52" width="230" height="8" as="geometry" />
        </mxCell>
        <mxCell id="vLZ2Rf8hTbHAqbCH0FMH-294" value="+ getProfile(Long): ResponseEntity&amp;lt;?&amp;gt;" style="text;strokeColor=none;fillColor=none;align=left;verticalAlign=top;spacingLeft=4;spacingRight=4;overflow=hidden;rotatable=0;points=[[0,0.5],[1,0.5]];portConstraint=eastwest;whiteSpace=wrap;html=1;" parent="vLZ2Rf8hTbHAqbCH0FMH-291" vertex="1">
          <mxGeometry y="60" width="230" height="26" as="geometry" />
        </mxCell>
        <mxCell id="vLZ2Rf8hTbHAqbCH0FMH-295" value="" style="endArrow=none;html=1;edgeStyle=orthogonalEdgeStyle;rounded=0;exitX=1;exitY=0.5;exitDx=0;exitDy=0;" parent="1" source="vLZ2Rf8hTbHAqbCH0FMH-284" edge="1">
          <mxGeometry relative="1" as="geometry">
            <mxPoint x="80" y="1060" as="sourcePoint" />
            <mxPoint x="170" y="969" as="targetPoint" />
          </mxGeometry>
        </mxCell>
        <mxCell id="vLZ2Rf8hTbHAqbCH0FMH-296" value="1" style="edgeLabel;resizable=0;html=1;align=left;verticalAlign=bottom;" parent="vLZ2Rf8hTbHAqbCH0FMH-295" connectable="0" vertex="1">
          <mxGeometry x="-1" relative="1" as="geometry" />
        </mxCell>
        <mxCell id="vLZ2Rf8hTbHAqbCH0FMH-297" value="1" style="edgeLabel;resizable=0;html=1;align=right;verticalAlign=bottom;" parent="vLZ2Rf8hTbHAqbCH0FMH-295" connectable="0" vertex="1">
          <mxGeometry x="1" relative="1" as="geometry">
            <mxPoint x="-4" as="offset" />
          </mxGeometry>
        </mxCell>
        <mxCell id="vLZ2Rf8hTbHAqbCH0FMH-298" value="" style="endArrow=none;html=1;edgeStyle=orthogonalEdgeStyle;rounded=0;exitX=1;exitY=0.5;exitDx=0;exitDy=0;entryX=-0.005;entryY=0.45;entryDx=0;entryDy=0;entryPerimeter=0;" parent="1" source="vLZ2Rf8hTbHAqbCH0FMH-292" target="vLZ2Rf8hTbHAqbCH0FMH-287" edge="1">
          <mxGeometry relative="1" as="geometry">
            <mxPoint x="350" y="1000" as="sourcePoint" />
            <mxPoint x="510" y="1000" as="targetPoint" />
          </mxGeometry>
        </mxCell>
        <mxCell id="vLZ2Rf8hTbHAqbCH0FMH-299" value="0..1" style="edgeLabel;resizable=0;html=1;align=left;verticalAlign=bottom;" parent="vLZ2Rf8hTbHAqbCH0FMH-298" connectable="0" vertex="1">
          <mxGeometry x="-1" relative="1" as="geometry" />
        </mxCell>
        <mxCell id="vLZ2Rf8hTbHAqbCH0FMH-300" value="1" style="edgeLabel;resizable=0;html=1;align=right;verticalAlign=bottom;" parent="vLZ2Rf8hTbHAqbCH0FMH-298" connectable="0" vertex="1">
          <mxGeometry x="1" relative="1" as="geometry" />
        </mxCell>
        <mxCell id="vLZ2Rf8hTbHAqbCH0FMH-308" value="UserDTO" style="swimlane;fontStyle=1;align=center;verticalAlign=top;childLayout=stackLayout;horizontal=1;startSize=26;horizontalStack=0;resizeParent=1;resizeParentMax=0;resizeLast=0;collapsible=1;marginBottom=0;whiteSpace=wrap;html=1;" parent="1" vertex="1">
          <mxGeometry x="-560" y="1470" width="190" height="180" as="geometry" />
        </mxCell>
        <mxCell id="vLZ2Rf8hTbHAqbCH0FMH-309" value="- username: String&lt;div&gt;- image: String&lt;/div&gt;&lt;div&gt;- id: Long&lt;/div&gt;&lt;div&gt;- firstName: String&lt;/div&gt;&lt;div&gt;- lastName: String&lt;/div&gt;&lt;div&gt;- friends: List&amp;lt;UserAccount&amp;gt;&lt;/div&gt;&lt;div&gt;- leaderboardPoints: Integer&lt;/div&gt;" style="text;strokeColor=none;fillColor=none;align=left;verticalAlign=top;spacingLeft=4;spacingRight=4;overflow=hidden;rotatable=0;points=[[0,0.5],[1,0.5]];portConstraint=eastwest;whiteSpace=wrap;html=1;" parent="vLZ2Rf8hTbHAqbCH0FMH-308" vertex="1">
          <mxGeometry y="26" width="190" height="124" as="geometry" />
        </mxCell>
        <mxCell id="vLZ2Rf8hTbHAqbCH0FMH-310" value="" style="line;strokeWidth=1;fillColor=none;align=left;verticalAlign=middle;spacingTop=-1;spacingLeft=3;spacingRight=3;rotatable=0;labelPosition=right;points=[];portConstraint=eastwest;strokeColor=inherit;" parent="vLZ2Rf8hTbHAqbCH0FMH-308" vertex="1">
          <mxGeometry y="150" width="190" height="30" as="geometry" />
        </mxCell>
        <mxCell id="vLZ2Rf8hTbHAqbCH0FMH-312" value="" style="endArrow=none;html=1;edgeStyle=orthogonalEdgeStyle;rounded=0;exitX=0.618;exitY=0.995;exitDx=0;exitDy=0;exitPerimeter=0;entryX=0.5;entryY=0;entryDx=0;entryDy=0;" parent="1" source="vLZ2Rf8hTbHAqbCH0FMH-126" target="vLZ2Rf8hTbHAqbCH0FMH-308" edge="1">
          <mxGeometry relative="1" as="geometry">
            <mxPoint x="-520" y="1470" as="sourcePoint" />
            <mxPoint x="-360" y="1470" as="targetPoint" />
            <Array as="points">
              <mxPoint x="-480" y="1470" />
            </Array>
          </mxGeometry>
        </mxCell>
        <mxCell id="vLZ2Rf8hTbHAqbCH0FMH-313" value="0..n" style="edgeLabel;resizable=0;html=1;align=left;verticalAlign=bottom;" parent="vLZ2Rf8hTbHAqbCH0FMH-312" connectable="0" vertex="1">
          <mxGeometry x="-1" relative="1" as="geometry">
            <mxPoint x="3" y="21" as="offset" />
          </mxGeometry>
        </mxCell>
        <mxCell id="vLZ2Rf8hTbHAqbCH0FMH-314" value="0..1" style="edgeLabel;resizable=0;html=1;align=right;verticalAlign=bottom;" parent="vLZ2Rf8hTbHAqbCH0FMH-312" connectable="0" vertex="1">
          <mxGeometry x="1" relative="1" as="geometry">
            <mxPoint x="10" y="-2" as="offset" />
          </mxGeometry>
        </mxCell>
        <mxCell id="vLZ2Rf8hTbHAqbCH0FMH-315" value="BCryptPasswordEncoder" style="swimlane;fontStyle=1;align=center;verticalAlign=top;childLayout=stackLayout;horizontal=1;startSize=26;horizontalStack=0;resizeParent=1;resizeParentMax=0;resizeLast=0;collapsible=1;marginBottom=0;whiteSpace=wrap;html=1;" parent="1" vertex="1">
          <mxGeometry x="-1140" y="1120" width="160" height="86" as="geometry" />
        </mxCell>
        <mxCell id="vLZ2Rf8hTbHAqbCH0FMH-317" value="" style="line;strokeWidth=1;fillColor=none;align=left;verticalAlign=middle;spacingTop=-1;spacingLeft=3;spacingRight=3;rotatable=0;labelPosition=right;points=[];portConstraint=eastwest;strokeColor=inherit;" parent="vLZ2Rf8hTbHAqbCH0FMH-315" vertex="1">
          <mxGeometry y="26" width="160" height="14" as="geometry" />
        </mxCell>
        <mxCell id="vLZ2Rf8hTbHAqbCH0FMH-318" value="+ bCryptPasswordEncoder: BCryptPasswordEncoder" style="text;strokeColor=none;fillColor=none;align=left;verticalAlign=top;spacingLeft=4;spacingRight=4;overflow=hidden;rotatable=0;points=[[0,0.5],[1,0.5]];portConstraint=eastwest;whiteSpace=wrap;html=1;" parent="vLZ2Rf8hTbHAqbCH0FMH-315" vertex="1">
          <mxGeometry y="40" width="160" height="46" as="geometry" />
        </mxCell>
        <mxCell id="vLZ2Rf8hTbHAqbCH0FMH-319" value="" style="endArrow=none;html=1;edgeStyle=orthogonalEdgeStyle;rounded=0;entryX=0;entryY=0.5;entryDx=0;entryDy=0;exitX=0.646;exitY=0.999;exitDx=0;exitDy=0;exitPerimeter=0;" parent="1" source="vLZ2Rf8hTbHAqbCH0FMH-137" target="vLZ2Rf8hTbHAqbCH0FMH-318" edge="1">
          <mxGeometry relative="1" as="geometry">
            <mxPoint x="-1290" y="1160" as="sourcePoint" />
            <mxPoint x="-980" y="1110" as="targetPoint" />
            <Array as="points">
              <mxPoint x="-1280" y="1160" />
              <mxPoint x="-1280" y="1183" />
            </Array>
          </mxGeometry>
        </mxCell>
        <mxCell id="vLZ2Rf8hTbHAqbCH0FMH-320" value="0..1" style="edgeLabel;resizable=0;html=1;align=left;verticalAlign=bottom;" parent="vLZ2Rf8hTbHAqbCH0FMH-319" connectable="0" vertex="1">
          <mxGeometry x="-1" relative="1" as="geometry">
            <mxPoint x="1" y="19" as="offset" />
          </mxGeometry>
        </mxCell>
        <mxCell id="vLZ2Rf8hTbHAqbCH0FMH-321" value="1" style="edgeLabel;resizable=0;html=1;align=right;verticalAlign=bottom;" parent="vLZ2Rf8hTbHAqbCH0FMH-319" connectable="0" vertex="1">
          <mxGeometry x="1" relative="1" as="geometry">
            <mxPoint x="-6" y="-2" as="offset" />
          </mxGeometry>
        </mxCell>
        <mxCell id="vLZ2Rf8hTbHAqbCH0FMH-322" value="MailConfig" style="swimlane;fontStyle=1;align=center;verticalAlign=top;childLayout=stackLayout;horizontal=1;startSize=26;horizontalStack=0;resizeParent=1;resizeParentMax=0;resizeLast=0;collapsible=1;marginBottom=0;whiteSpace=wrap;html=1;" parent="1" vertex="1">
          <mxGeometry x="-3130" y="820" width="200" height="76" as="geometry" />
        </mxCell>
        <mxCell id="vLZ2Rf8hTbHAqbCH0FMH-324" value="" style="line;strokeWidth=1;fillColor=none;align=left;verticalAlign=middle;spacingTop=-1;spacingLeft=3;spacingRight=3;rotatable=0;labelPosition=right;points=[];portConstraint=eastwest;strokeColor=inherit;" parent="vLZ2Rf8hTbHAqbCH0FMH-322" vertex="1">
          <mxGeometry y="26" width="200" height="24" as="geometry" />
        </mxCell>
        <mxCell id="vLZ2Rf8hTbHAqbCH0FMH-325" value="+ javaMailSender: JavaMailSender" style="text;strokeColor=none;fillColor=none;align=left;verticalAlign=top;spacingLeft=4;spacingRight=4;overflow=hidden;rotatable=0;points=[[0,0.5],[1,0.5]];portConstraint=eastwest;whiteSpace=wrap;html=1;" parent="vLZ2Rf8hTbHAqbCH0FMH-322" vertex="1">
          <mxGeometry y="50" width="200" height="26" as="geometry" />
        </mxCell>
        <mxCell id="vLZ2Rf8hTbHAqbCH0FMH-326" value="" style="endArrow=none;html=1;edgeStyle=orthogonalEdgeStyle;rounded=0;exitX=0.453;exitY=0.997;exitDx=0;exitDy=0;exitPerimeter=0;entryX=0.529;entryY=0.002;entryDx=0;entryDy=0;entryPerimeter=0;" parent="1" source="vLZ2Rf8hTbHAqbCH0FMH-325" target="vLZ2Rf8hTbHAqbCH0FMH-241" edge="1">
          <mxGeometry relative="1" as="geometry">
            <mxPoint x="-3070" y="890" as="sourcePoint" />
            <mxPoint x="-2910" y="890" as="targetPoint" />
            <Array as="points">
              <mxPoint x="-3039" y="928" />
              <mxPoint x="-3039" y="928" />
            </Array>
          </mxGeometry>
        </mxCell>
        <mxCell id="vLZ2Rf8hTbHAqbCH0FMH-327" value="1" style="edgeLabel;resizable=0;html=1;align=left;verticalAlign=bottom;" parent="vLZ2Rf8hTbHAqbCH0FMH-326" connectable="0" vertex="1">
          <mxGeometry x="-1" relative="1" as="geometry">
            <mxPoint x="9" y="24" as="offset" />
          </mxGeometry>
        </mxCell>
        <mxCell id="vLZ2Rf8hTbHAqbCH0FMH-328" value="0..1" style="edgeLabel;resizable=0;html=1;align=right;verticalAlign=bottom;" parent="vLZ2Rf8hTbHAqbCH0FMH-326" connectable="0" vertex="1">
          <mxGeometry x="1" relative="1" as="geometry">
            <mxPoint x="39" as="offset" />
          </mxGeometry>
        </mxCell>
        <mxCell id="vLZ2Rf8hTbHAqbCH0FMH-329" value="CarsConfig" style="swimlane;fontStyle=1;align=center;verticalAlign=top;childLayout=stackLayout;horizontal=1;startSize=26;horizontalStack=0;resizeParent=1;resizeParentMax=0;resizeLast=0;collapsible=1;marginBottom=0;whiteSpace=wrap;html=1;" parent="1" vertex="1">
          <mxGeometry x="-3390" y="820" width="240" height="96" as="geometry" />
        </mxCell>
        <mxCell id="vLZ2Rf8hTbHAqbCH0FMH-331" value="" style="line;strokeWidth=1;fillColor=none;align=left;verticalAlign=middle;spacingTop=-1;spacingLeft=3;spacingRight=3;rotatable=0;labelPosition=right;points=[];portConstraint=eastwest;strokeColor=inherit;" parent="vLZ2Rf8hTbHAqbCH0FMH-329" vertex="1">
          <mxGeometry y="26" width="240" height="24" as="geometry" />
        </mxCell>
        <mxCell id="vLZ2Rf8hTbHAqbCH0FMH-332" value="+ addCorsMappings(CorsRegistry): void" style="text;strokeColor=none;fillColor=none;align=left;verticalAlign=top;spacingLeft=4;spacingRight=4;overflow=hidden;rotatable=0;points=[[0,0.5],[1,0.5]];portConstraint=eastwest;whiteSpace=wrap;html=1;" parent="vLZ2Rf8hTbHAqbCH0FMH-329" vertex="1">
          <mxGeometry y="50" width="240" height="46" as="geometry" />
        </mxCell>
      </root>
    </mxGraphModel>
  </diagram>
</mxfile>
